<svg width="19" height="19" viewBox="0 0 19 19" fill="none" xmlns="http://www.w3.org/2000/svg">
<path d="M9.5 8.70678C10.1558 8.70678 10.6875 8.17512 10.6875 7.51928C10.6875 6.86345 10.1558 6.33179 9.5 6.33179C8.84416 6.33179 8.3125 6.86345 8.3125 7.51928C8.3125 8.17512 8.84416 8.70678 9.5 8.70678Z" fill="#1757AF"/>
<path d="M9.49696 1.58179C7.82818 1.5817 6.22679 2.24026 5.04087 3.41433C3.85494 4.5884 3.18032 6.18308 3.16364 7.85179C3.16364 12.1901 8.74488 17.0193 8.98238 17.2251C9.12578 17.3478 9.30827 17.4152 9.49696 17.4152C9.68566 17.4152 9.86815 17.3478 10.0115 17.2251C10.2886 17.0193 15.8303 12.1901 15.8303 7.85179C15.8136 6.18308 15.139 4.5884 13.9531 3.41433C12.7671 2.24026 11.1658 1.5817 9.49696 1.58179ZM9.49696 10.2901C8.94894 10.2901 8.41323 10.1276 7.95757 9.82315C7.50191 9.51869 7.14677 9.08594 6.93705 8.57964C6.72733 8.07334 6.67246 7.51621 6.77937 6.97872C6.88629 6.44124 7.15018 5.94752 7.53769 5.56001C7.9252 5.1725 8.41891 4.90861 8.9564 4.8017C9.49389 4.69478 10.051 4.74965 10.5573 4.95937C11.0636 5.16909 11.4964 5.52423 11.8008 5.9799C12.1053 6.43556 12.2678 6.97127 12.2678 7.51929C12.2678 8.25416 11.9759 8.95893 11.4562 9.47856C10.9366 9.9982 10.2318 10.2901 9.49696 10.2901Z" fill="#1757AF"/>
</svg>
