<svg width="19" height="19" viewBox="0 0 19 19" fill="none" xmlns="http://www.w3.org/2000/svg">
<path d="M13.7221 6.51286C13.1564 6.15678 12.6902 5.66307 12.3672 5.07789C12.0441 4.49272 11.8747 3.83517 11.8748 3.16675H2.06872C1.97401 3.16821 1.87993 3.18241 1.789 3.20897L9.41539 10.8037L13.7221 6.51286Z" fill="#1757AF"/>
<path d="M15.8333 7.12492C15.4761 7.12182 15.121 7.07033 14.7777 6.97186L10.1808 11.553C9.98301 11.7496 9.71547 11.8599 9.43661 11.8599C9.15775 11.8599 8.89021 11.7496 8.69244 11.553L1.0555 3.95825C1.03209 4.0443 1.01967 4.13297 1.01855 4.22214V14.7777C1.01855 15.0577 1.12976 15.3261 1.32772 15.5241C1.52567 15.722 1.79416 15.8333 2.07411 15.8333H16.8519C17.1318 15.8333 17.4003 15.722 17.5983 15.5241C17.7962 15.3261 17.9074 15.0577 17.9074 14.7777V6.53909C17.2841 6.92375 16.5657 7.12665 15.8333 7.12492ZM2.79717 14.7777H2.06355V14.023L5.9005 10.2177L6.64467 10.9619L2.79717 14.7777ZM16.8413 14.7777H16.1024L12.2549 10.9619L12.9991 10.2177L16.8361 14.023L16.8413 14.7777Z" fill="#1757AF"/>
<path d="M15.8335 5.80561C17.2909 5.80561 18.4724 4.62414 18.4724 3.16672C18.4724 1.7093 17.2909 0.527832 15.8335 0.527832C14.3761 0.527832 13.1946 1.7093 13.1946 3.16672C13.1946 4.62414 14.3761 5.80561 15.8335 5.80561Z" fill="#1757AF"/>
</svg>
