<svg width="15" height="15" viewBox="0 0 15 15" fill="none" xmlns="http://www.w3.org/2000/svg">
	<path d="M7.5 6.87374C8.01777 6.87374 8.4375 6.45401 8.4375 5.93624C8.4375 5.41848 8.01777 4.99875 7.5 4.99875C6.98223 4.99875 6.5625 5.41848 6.5625 5.93624C6.5625 6.45401 6.98223 6.87374 7.5 6.87374Z" fill="#1B1B1B"/>
	<path d="M7.49755 1.24875C6.18009 1.24868 4.91584 1.7686 3.97958 2.69549C3.04333 3.62239 2.51073 4.88135 2.49756 6.19875C2.49756 9.62375 6.90381 13.4363 7.0913 13.5988C7.20451 13.6956 7.34858 13.7488 7.49755 13.7488C7.64652 13.7488 7.7906 13.6956 7.9038 13.5988C8.12255 13.4363 12.4976 9.62375 12.4976 6.19875C12.4844 4.88135 11.9518 3.62239 11.0155 2.69549C10.0793 1.7686 8.81502 1.24868 7.49755 1.24875ZM7.49755 8.12375C7.06491 8.12375 6.64198 7.99546 6.28225 7.75509C5.92251 7.51472 5.64214 7.17308 5.47657 6.77337C5.311 6.37366 5.26768 5.93382 5.35209 5.50949C5.43649 5.08516 5.64483 4.69538 5.95076 4.38945C6.25669 4.08353 6.64646 3.87519 7.07079 3.79078C7.49513 3.70638 7.93496 3.7497 8.33467 3.91526C8.73439 4.08083 9.07603 4.36121 9.31639 4.72094C9.55676 5.08067 9.68505 5.5036 9.68505 5.93625C9.68505 6.51641 9.45458 7.07281 9.04435 7.48305C8.63411 7.89328 8.07771 8.12375 7.49755 8.12375Z" fill="#1B1B1B"/>
</svg>