<svg width="16" height="16" viewBox="0 0 16 16" fill="none" xmlns="http://www.w3.org/2000/svg">
	<path d="M11.5555 5.48446C11.0791 5.18461 10.6866 4.76886 10.4145 4.27607C10.1425 3.78329 9.99983 3.22957 9.99992 2.66669H1.74215C1.66239 2.66792 1.58316 2.67988 1.50659 2.70224L7.92881 9.09779L11.5555 5.48446Z" fill="#1B1B1B"/>
	<path d="M13.3335 5.99998C13.0327 5.99737 12.7337 5.95401 12.4446 5.87109L8.57347 9.72887C8.40692 9.89443 8.18163 9.98736 7.9468 9.98736C7.71197 9.98736 7.48668 9.89443 7.32013 9.72887L0.889021 3.33331C0.869305 3.40578 0.858852 3.48044 0.85791 3.55554V12.4444C0.85791 12.6802 0.951561 12.9063 1.11826 13.073C1.28496 13.2397 1.51105 13.3333 1.7468 13.3333H14.1912C14.427 13.3333 14.6531 13.2397 14.8198 13.073C14.9865 12.9063 15.0801 12.6802 15.0801 12.4444V5.50665C14.5552 5.83057 13.9503 6.00144 13.3335 5.99998ZM2.35569 12.4444H1.73791V11.8089L4.96902 8.60443L5.59569 9.23109L2.35569 12.4444ZM14.1824 12.4444H13.5601L10.3201 9.23109L10.9468 8.60443L14.1779 11.8089L14.1824 12.4444Z" fill="#1B1B1B"/>
	<path d="M13.3333 4.8889C14.5606 4.8889 15.5555 3.89398 15.5555 2.66668C15.5555 1.43938 14.5606 0.444458 13.3333 0.444458C12.106 0.444458 11.1111 1.43938 11.1111 2.66668C11.1111 3.89398 12.106 4.8889 13.3333 4.8889Z" fill="#1B1B1B"/>
</svg>