<svg width="214" height="64" viewBox="0 0 214 64" fill="none" xmlns="http://www.w3.org/2000/svg">
<rect x="129.236" width="36.0677" height="55.8196" fill="#1F396A"/>
<path d="M169.125 15.9016H164.773M169.125 15.9016L169.307 20.127M169.125 15.9016H174.872M170.816 55.1134H158.562M170.816 55.1134L159.031 45.2259M170.816 55.1134L169.999 36.178M158.562 55.1134L170.816 45.2259L159.46 36.178M158.562 55.1134L159.031 45.2259M160.421 15.9016H164.773M160.421 15.9016L159.828 28.3965M160.421 15.9016H154.59M164.773 15.9016L160.421 20.127L169.664 28.3965M164.773 15.9016L169.307 20.127M164.773 15.9016L169.664 10.2396M164.773 15.9016L159.46 10.2396M169.664 28.3965L159.46 36.178M169.664 28.3965L169.999 36.178M169.664 28.3965L169.307 20.127M159.46 36.178L159.031 45.2259M159.46 36.178L159.828 28.3965M159.031 45.2259L169.999 36.178M169.999 36.178L159.828 28.3965M159.828 28.3965L169.307 20.127M184.337 15.9016L189.83 10.2396H179.858M184.337 15.9016L179.858 10.2396M184.337 15.9016H174.872M144.28 15.9016L140.562 10.2396H150.011M144.28 15.9016H154.59M144.28 15.9016L150.011 10.2396M179.858 10.2396L174.872 15.9016M179.858 10.2396H169.664M174.872 15.9016L169.664 10.2396M169.664 10.2396H159.46M159.46 10.2396L154.59 15.9016M159.46 10.2396H150.011M154.59 15.9016L150.011 10.2396M184.759 10.7465L189.83 5H140.562L144.28 10.7465M184.759 10.7465L179.435 5L174.872 10.7465L169.999 5L164.773 10.7465L159.46 5L154.59 10.7465C152.759 8.83103 149.063 5 148.928 5C148.793 5 145.773 8.83103 144.28 10.7465M184.759 10.7465H144.28" stroke="#969696"/>
<line x1="8.74228e-08" y1="55.2931" x2="214" y2="55.2931" stroke="#1F396A" stroke-width="2"/>
<line x1="8.74228e-08" y1="62.5984" x2="186.498" y2="62.5984" stroke="#969696" stroke-width="2"/>
</svg>
