<svg width="435" height="344" viewBox="0 0 435 344" fill="none" xmlns="http://www.w3.org/2000/svg">
<g filter="url(#filter0_d)">
<circle cx="222.458" cy="173.22" r="76.7885" fill="#F6F8F9"/>
</g>
<mask id="path-2-inside-1" fill="white">
<path fill-rule="evenodd" clip-rule="evenodd" d="M116.803 173.376C117.825 231.826 165.526 278.893 224.219 278.893C283.553 278.893 331.653 230.793 331.653 171.459C331.653 113.001 284.962 65.4474 226.838 64.0572L226.838 60.5337C286.908 61.9248 335.175 111.055 335.175 171.459C335.175 232.739 285.499 282.415 224.219 282.415C163.58 282.415 114.303 233.771 113.28 173.376L116.803 173.376Z"/>
</mask>
<path fill-rule="evenodd" clip-rule="evenodd" d="M116.803 173.376C117.825 231.826 165.526 278.893 224.219 278.893C283.553 278.893 331.653 230.793 331.653 171.459C331.653 113.001 284.962 65.4474 226.838 64.0572L226.838 60.5337C286.908 61.9248 335.175 111.055 335.175 171.459C335.175 232.739 285.499 282.415 224.219 282.415C163.58 282.415 114.303 233.771 113.28 173.376L116.803 173.376Z" fill="black"/>
<path d="M116.803 173.376L117.507 173.364L117.495 172.672L116.803 172.672L116.803 173.376ZM226.838 64.0572L226.133 64.0572L226.133 64.745L226.821 64.7614L226.838 64.0572ZM226.838 60.5337L226.854 59.8295L226.133 59.8128L226.133 60.5337L226.838 60.5337ZM113.28 173.376L113.28 172.672L112.563 172.672L112.575 173.388L113.28 173.376ZM116.098 173.389C117.128 232.222 165.141 279.597 224.219 279.597L224.219 278.188C165.911 278.188 118.523 231.43 117.507 173.364L116.098 173.389ZM224.219 279.597C283.942 279.597 332.357 231.182 332.357 171.459L330.948 171.459C330.948 230.404 283.164 278.188 224.219 278.188L224.219 279.597ZM332.357 171.459C332.357 112.617 285.36 64.7523 226.855 63.3529L226.821 64.7614C284.564 66.1426 330.948 113.384 330.948 171.459L332.357 171.459ZM226.133 60.5337L226.133 64.0572L227.542 64.0572L227.542 60.5337L226.133 60.5337ZM335.88 171.459C335.88 110.672 287.306 61.2294 226.854 59.8295L226.822 61.238C286.51 62.6203 334.471 111.439 334.471 171.459L335.88 171.459ZM224.219 283.12C285.888 283.12 335.88 233.128 335.88 171.459L334.471 171.459C334.471 232.349 285.11 281.711 224.219 281.711L224.219 283.12ZM112.575 173.388C113.605 234.167 163.195 283.12 224.219 283.12L224.219 281.711C163.966 281.711 115.001 233.376 113.984 173.364L112.575 173.388ZM116.803 172.672L113.28 172.672L113.28 174.081L116.803 174.081L116.803 172.672Z" fill="black" mask="url(#path-2-inside-1)"/>
<mask id="path-4-inside-2" fill="white">
<path fill-rule="evenodd" clip-rule="evenodd" d="M116.803 173.376C117.825 231.826 165.526 278.893 224.219 278.893C283.553 278.893 331.653 230.793 331.653 171.459C331.653 113.001 284.962 65.4474 226.838 64.0572L226.838 60.5337C286.908 61.9248 335.175 111.055 335.175 171.459C335.175 232.739 285.499 282.415 224.219 282.415C163.58 282.415 114.303 233.771 113.28 173.376L116.803 173.376Z"/>
</mask>
<path fill-rule="evenodd" clip-rule="evenodd" d="M116.803 173.376C117.825 231.826 165.526 278.893 224.219 278.893C283.553 278.893 331.653 230.793 331.653 171.459C331.653 113.001 284.962 65.4474 226.838 64.0572L226.838 60.5337C286.908 61.9248 335.175 111.055 335.175 171.459C335.175 232.739 285.499 282.415 224.219 282.415C163.58 282.415 114.303 233.771 113.28 173.376L116.803 173.376Z" fill="#1875D2"/>
<path d="M116.803 173.376L117.507 173.364L117.495 172.672L116.803 172.672L116.803 173.376ZM226.838 64.0572L226.133 64.0572L226.133 64.745L226.821 64.7614L226.838 64.0572ZM226.838 60.5337L226.854 59.8295L226.133 59.8128L226.133 60.5337L226.838 60.5337ZM113.28 173.376L113.28 172.672L112.563 172.672L112.575 173.388L113.28 173.376ZM116.098 173.389C117.128 232.222 165.141 279.597 224.219 279.597L224.219 278.188C165.911 278.188 118.523 231.43 117.507 173.364L116.098 173.389ZM224.219 279.597C283.942 279.597 332.357 231.182 332.357 171.459L330.948 171.459C330.948 230.404 283.164 278.188 224.219 278.188L224.219 279.597ZM332.357 171.459C332.357 112.617 285.36 64.7523 226.855 63.3529L226.821 64.7614C284.564 66.1426 330.948 113.384 330.948 171.459L332.357 171.459ZM226.133 60.5337L226.133 64.0572L227.542 64.0572L227.542 60.5337L226.133 60.5337ZM335.88 171.459C335.88 110.672 287.306 61.2294 226.854 59.8295L226.822 61.238C286.51 62.6203 334.471 111.439 334.471 171.459L335.88 171.459ZM224.219 283.12C285.888 283.12 335.88 233.128 335.88 171.459L334.471 171.459C334.471 232.349 285.11 281.711 224.219 281.711L224.219 283.12ZM112.575 173.388C113.605 234.167 163.195 283.12 224.219 283.12L224.219 281.711C163.966 281.711 115.001 233.376 113.984 173.364L112.575 173.388ZM116.803 172.672L113.28 172.672L113.28 174.081L116.803 174.081L116.803 172.672Z" fill="#1875D2" mask="url(#path-4-inside-2)"/>
<g filter="url(#filter1_d)">
<circle r="7.04482" transform="matrix(-0.965926 -0.258818 0.258821 -0.965925 27.0371 245.333)" fill="#F9F9F9"/>
</g>
<mask id="path-7-inside-3" fill="white">
<path fill-rule="evenodd" clip-rule="evenodd" d="M22.1554 237.407C17.5905 240.183 16.0572 246.113 18.7427 250.764C21.4666 255.482 27.4994 257.099 32.2173 254.375C36.8437 251.704 38.4878 245.851 35.9813 241.176L39.0329 239.414C42.5114 245.774 40.2898 253.781 33.9785 257.425C27.5758 261.122 19.3888 258.928 15.6922 252.525C12.034 246.189 14.1444 238.106 20.3939 234.356L22.1554 237.407Z"/>
</mask>
<path fill-rule="evenodd" clip-rule="evenodd" d="M22.1554 237.407C17.5905 240.183 16.0572 246.113 18.7427 250.764C21.4666 255.482 27.4994 257.099 32.2173 254.375C36.8437 251.704 38.4878 245.851 35.9813 241.176L39.0329 239.414C42.5114 245.774 40.2898 253.781 33.9785 257.425C27.5758 261.122 19.3888 258.928 15.6922 252.525C12.034 246.189 14.1444 238.106 20.3939 234.356L22.1554 237.407Z" fill="#1875D2"/>
<path d="M22.1554 237.407L22.5215 238.009L23.1098 237.651L22.7655 237.055L22.1554 237.407ZM35.9813 241.176L35.629 240.566L35.0378 240.907L35.3604 241.509L35.9813 241.176ZM39.0329 239.414L39.651 239.076L39.305 238.444L38.6807 238.804L39.0329 239.414ZM20.3939 234.356L21.004 234.004L20.6457 233.383L20.0314 233.752L20.3939 234.356ZM21.7893 236.805C16.8981 239.78 15.2553 246.133 18.1326 251.116L19.3528 250.412C16.8591 246.093 18.2829 240.587 22.5215 238.009L21.7893 236.805ZM18.1326 251.116C21.051 256.171 27.5147 257.903 32.5695 254.985L31.865 253.765C27.4841 256.294 21.8821 254.793 19.3528 250.412L18.1326 251.116ZM32.5695 254.985C37.5265 252.123 39.2879 245.852 36.6021 240.843L35.3604 241.509C37.6878 245.849 36.161 251.284 31.865 253.765L32.5695 254.985ZM38.6807 238.804L35.629 240.566L36.3335 241.786L39.3851 240.024L38.6807 238.804ZM34.3307 258.035C40.9743 254.2 43.3127 245.771 39.651 239.076L38.4148 239.752C41.7101 245.777 39.6053 253.363 33.6262 256.815L34.3307 258.035ZM15.0821 252.878C18.9732 259.617 27.5911 261.926 34.3307 258.035L33.6262 256.815C27.5605 260.317 19.8043 258.239 16.3023 252.173L15.0821 252.878ZM20.0314 233.752C13.4528 237.699 11.2313 246.208 15.0821 252.878L16.3023 252.173C12.8366 246.171 14.8359 238.512 20.7563 234.96L20.0314 233.752ZM22.7655 237.055L21.004 234.004L19.7838 234.708L21.5453 237.759L22.7655 237.055Z" fill="#1875D2" mask="url(#path-7-inside-3)"/>
<g filter="url(#filter2_d)">
<circle cx="28.1956" cy="98.6643" r="7.04482" transform="rotate(-105 28.1956 98.6643)" fill="#F9F9F9"/>
</g>
<mask id="path-10-inside-4" fill="white">
<path fill-rule="evenodd" clip-rule="evenodd" d="M32.7227 89.9397C28.0356 87.3744 22.1336 89.0111 19.4481 93.6626C16.7242 98.3805 18.3407 104.413 23.0586 107.137C27.6847 109.808 33.575 108.306 36.3704 103.799L39.4221 105.56C35.6529 111.752 27.6083 113.831 21.2974 110.188C14.8947 106.491 12.701 98.3041 16.3976 91.9014C20.0559 85.5651 28.112 83.351 34.4843 86.8887L32.7227 89.9397Z"/>
</mask>
<path fill-rule="evenodd" clip-rule="evenodd" d="M32.7227 89.9397C28.0356 87.3744 22.1336 89.0111 19.4481 93.6626C16.7242 98.3805 18.3407 104.413 23.0586 107.137C27.6847 109.808 33.575 108.306 36.3704 103.799L39.4221 105.56C35.6529 111.752 27.6083 113.831 21.2974 110.188C14.8947 106.491 12.701 98.3041 16.3976 91.9014C20.0559 85.5651 28.112 83.351 34.4843 86.8887L32.7227 89.9397Z" fill="#1F88E4"/>
<path d="M32.7227 89.9397L32.3845 90.5577L32.9885 90.8883L33.3328 90.292L32.7227 89.9397ZM36.3704 103.799L36.7227 103.188L36.1315 102.847L35.7717 103.427L36.3704 103.799ZM39.4221 105.56L40.0238 105.927L40.3987 105.311L39.7743 104.95L39.4221 105.56ZM34.4843 86.8887L35.0944 87.2409L35.4526 86.6205L34.8262 86.2727L34.4843 86.8887ZM33.061 89.3218C28.0388 86.573 21.7154 88.3266 18.838 93.3104L20.0582 94.0149C22.5519 89.6956 28.0324 88.1757 32.3845 90.5577L33.061 89.3218ZM18.838 93.3104C15.9196 98.3653 17.6515 104.829 22.7063 107.747L23.4108 106.527C19.0299 103.998 17.5288 98.3958 20.0582 94.0149L18.838 93.3104ZM22.7063 107.747C27.663 110.609 33.9738 108.999 36.9691 104.17L35.7717 103.427C33.1762 107.612 27.7064 109.007 23.4108 106.527L22.7063 107.747ZM39.7743 104.95L36.7227 103.188L36.0182 104.409L39.0698 106.17L39.7743 104.95ZM20.9451 110.798C27.5883 114.633 36.0561 112.445 40.0238 105.927L38.8203 105.194C35.2497 111.06 27.6284 113.029 21.6496 109.578L20.9451 110.798ZM15.7875 91.5492C11.8964 98.2888 14.2055 106.907 20.9451 110.798L21.6496 109.578C15.5839 106.076 13.5056 98.3194 17.0077 92.2537L15.7875 91.5492ZM34.8262 86.2727C28.1184 82.5488 19.6383 84.8794 15.7875 91.5492L17.0077 92.2537C20.4734 86.2509 28.1057 84.1532 34.1423 87.5046L34.8262 86.2727ZM33.3328 90.292L35.0944 87.2409L33.8742 86.5364L32.1126 89.5875L33.3328 90.292Z" fill="#1F88E4" mask="url(#path-10-inside-4)"/>
<mask id="path-12-inside-5" fill="white">
<path fill-rule="evenodd" clip-rule="evenodd" d="M138.46 89.9612C93.811 136.194 94.3015 209.87 139.932 255.5C186.057 301.626 260.842 301.626 306.968 255.5C352.415 210.053 353.084 136.783 308.974 90.5176L311.465 88.0262C356.951 135.668 356.282 211.168 309.459 257.991C261.957 305.492 184.942 305.492 137.441 257.991C90.4352 210.985 89.9445 135.079 135.969 87.4701L138.46 89.9612Z"/>
</mask>
<path fill-rule="evenodd" clip-rule="evenodd" d="M138.46 89.9612C93.811 136.194 94.3015 209.87 139.932 255.5C186.057 301.626 260.842 301.626 306.968 255.5C352.415 210.053 353.084 136.783 308.974 90.5176L311.465 88.0262C356.951 135.668 356.282 211.168 309.459 257.991C261.957 305.492 184.942 305.492 137.441 257.991C90.4352 210.985 89.9445 135.079 135.969 87.4701L138.46 89.9612Z" fill="#1F88E4"/>
<path d="M138.46 89.9612L138.967 90.4506L139.448 89.9526L138.958 89.463L138.46 89.9612ZM308.974 90.5176L308.475 90.0194L307.989 90.5058L308.464 91.0037L308.974 90.5176ZM311.465 88.0262L311.975 87.5397L311.477 87.0182L310.967 87.528L311.465 88.0262ZM135.969 87.4701L136.467 86.9719L135.96 86.4653L135.462 86.9804L135.969 87.4701ZM137.953 89.4718C93.0377 135.981 93.5312 210.096 139.433 255.998L140.43 255.002C95.0719 209.644 94.5842 136.408 138.967 90.4506L137.953 89.4718ZM139.433 255.998C185.834 302.399 261.065 302.399 307.466 255.998L306.47 255.002C260.619 300.853 186.28 300.853 140.43 255.002L139.433 255.998ZM307.466 255.998C353.185 210.28 353.857 136.574 309.483 90.0314L308.464 91.0037C352.311 136.993 351.646 209.826 306.47 255.002L307.466 255.998ZM310.967 87.528L308.475 90.0194L309.472 91.0157L311.963 88.5243L310.967 87.528ZM309.957 258.489C357.051 211.395 357.724 135.458 311.975 87.5397L310.955 88.5126C356.177 135.879 355.512 210.941 308.961 257.493L309.957 258.489ZM136.943 258.489C184.719 306.266 262.18 306.266 309.957 258.489L308.961 257.493C261.734 304.719 185.165 304.719 137.939 257.493L136.943 258.489ZM135.462 86.9804C89.1713 134.865 89.6647 211.211 136.943 258.489L137.939 257.493C91.2056 210.76 90.7178 135.293 136.475 87.9597L135.462 86.9804ZM138.958 89.463L136.467 86.9719L135.471 87.9682L137.962 90.4593L138.958 89.463Z" fill="#1F88E4" mask="url(#path-12-inside-5)"/>
<mask id="path-14-inside-6" fill="white">
<path fill-rule="evenodd" clip-rule="evenodd" d="M290.879 240.232C253.132 277.979 191.932 277.979 154.185 240.232C153.863 239.91 153.545 239.587 153.229 239.263L150.738 241.754C151.054 242.078 151.373 242.401 151.694 242.722C190.817 281.845 254.247 281.845 293.369 242.722C332.492 203.6 332.492 140.169 293.369 101.047C254.247 61.9242 190.817 61.9242 151.694 101.047C151.339 101.402 150.987 101.759 150.638 102.119L153.129 104.61C153.477 104.25 153.829 103.893 154.185 103.538C191.932 65.7905 253.132 65.7905 290.879 103.538C328.626 141.285 328.626 202.485 290.879 240.232Z"/>
</mask>
<path fill-rule="evenodd" clip-rule="evenodd" d="M290.879 240.232C253.132 277.979 191.932 277.979 154.185 240.232C153.863 239.91 153.545 239.587 153.229 239.263L150.738 241.754C151.054 242.078 151.373 242.401 151.694 242.722C190.817 281.845 254.247 281.845 293.369 242.722C332.492 203.6 332.492 140.169 293.369 101.047C254.247 61.9242 190.817 61.9242 151.694 101.047C151.339 101.402 150.987 101.759 150.638 102.119L153.129 104.61C153.477 104.25 153.829 103.893 154.185 103.538C191.932 65.7905 253.132 65.7905 290.879 103.538C328.626 141.285 328.626 202.485 290.879 240.232Z" fill="#1564C0"/>
<path d="M153.229 239.263L153.734 238.771L153.236 238.259L152.731 238.764L153.229 239.263ZM150.738 241.754L150.24 241.255L149.748 241.747L150.233 242.245L150.738 241.754ZM150.638 102.119L150.132 101.628L149.649 102.126L150.14 102.617L150.638 102.119ZM153.129 104.61L152.631 105.108L153.137 105.614L153.635 105.1L153.129 104.61ZM153.687 240.73C191.709 278.752 253.355 278.752 291.377 240.73L290.381 239.733C252.909 277.205 192.155 277.205 154.683 239.733L153.687 240.73ZM152.724 239.754C153.042 240.081 153.363 240.406 153.687 240.73L154.683 239.733C154.364 239.414 154.048 239.094 153.734 238.771L152.724 239.754ZM152.731 238.764L150.24 241.255L151.236 242.252L153.727 239.761L152.731 238.764ZM150.233 242.245C150.552 242.572 150.872 242.897 151.196 243.22L152.192 242.224C151.873 241.905 151.557 241.584 151.243 241.262L150.233 242.245ZM151.196 243.22C190.594 282.618 254.47 282.618 293.868 243.22L292.871 242.224C254.024 281.072 191.04 281.072 152.192 242.224L151.196 243.22ZM293.868 243.22C333.265 203.823 333.265 139.946 293.868 100.549L292.871 101.545C331.719 140.392 331.719 203.377 292.871 242.224L293.868 243.22ZM293.868 100.549C254.47 61.151 190.594 61.151 151.196 100.549L152.192 101.545C191.04 62.6975 254.024 62.6975 292.871 101.545L293.868 100.549ZM151.196 100.549C150.838 100.906 150.484 101.266 150.132 101.628L151.143 102.609C151.49 102.253 151.839 101.898 152.192 101.545L151.196 100.549ZM150.14 102.617L152.631 105.108L153.627 104.111L151.136 101.62L150.14 102.617ZM153.687 103.039C153.329 103.397 152.974 103.757 152.623 104.119L153.635 105.1C153.981 104.743 154.33 104.388 154.683 104.036L153.687 103.039ZM291.377 103.039C253.355 65.0173 191.709 65.0173 153.687 103.039L154.683 104.036C192.155 66.5638 252.909 66.5638 290.381 104.036L291.377 103.039ZM291.377 240.73C329.399 202.708 329.399 141.062 291.377 103.039L290.381 104.036C327.852 141.508 327.852 202.262 290.381 239.733L291.377 240.73Z" fill="#1564C0" mask="url(#path-14-inside-6)"/>
<mask id="path-16-inside-7" fill="white">
<path fill-rule="evenodd" clip-rule="evenodd" d="M308.426 172.09C308.426 219.528 269.97 257.984 222.532 257.984C222.126 257.984 221.72 257.981 221.315 257.976L221.315 261.498C221.72 261.504 222.126 261.507 222.532 261.507C271.916 261.507 311.949 221.473 311.949 172.09C311.949 122.706 271.916 82.673 222.532 82.673C173.148 82.673 133.115 122.706 133.115 172.09C133.115 172.537 133.119 172.984 133.125 173.429L136.648 173.429C136.641 172.984 136.638 172.537 136.638 172.09C136.638 124.652 175.094 86.1954 222.532 86.1954C269.97 86.1954 308.426 124.652 308.426 172.09Z"/>
</mask>
<path fill-rule="evenodd" clip-rule="evenodd" d="M308.426 172.09C308.426 219.528 269.97 257.984 222.532 257.984C222.126 257.984 221.72 257.981 221.315 257.976L221.315 261.498C221.72 261.504 222.126 261.507 222.532 261.507C271.916 261.507 311.949 221.473 311.949 172.09C311.949 122.706 271.916 82.673 222.532 82.673C173.148 82.673 133.115 122.706 133.115 172.09C133.115 172.537 133.119 172.984 133.125 173.429L136.648 173.429C136.641 172.984 136.638 172.537 136.638 172.09C136.638 124.652 175.094 86.1954 222.532 86.1954C269.97 86.1954 308.426 124.652 308.426 172.09Z" fill="#0E47A0"/>
<path d="M221.315 257.976L221.325 257.271L220.611 257.261L220.611 257.976L221.315 257.976ZM221.315 261.498L220.611 261.498L220.611 262.194L221.306 262.203L221.315 261.498ZM133.125 173.429L132.421 173.44L132.431 174.134L133.125 174.134L133.125 173.429ZM136.648 173.429L136.648 174.134L137.363 174.134L137.352 173.419L136.648 173.429ZM222.532 258.689C270.359 258.689 309.131 219.917 309.131 172.09L307.722 172.09C307.722 219.139 269.581 257.28 222.532 257.28L222.532 258.689ZM221.306 258.68C221.714 258.686 222.123 258.689 222.532 258.689L222.532 257.28C222.129 257.28 221.727 257.277 221.325 257.271L221.306 258.68ZM220.611 257.976L220.611 261.498L222.02 261.498L222.02 257.976L220.611 257.976ZM221.306 262.203C221.714 262.208 222.123 262.211 222.532 262.211L222.532 260.802C222.129 260.802 221.727 260.799 221.325 260.794L221.306 262.203ZM222.532 262.211C272.305 262.211 312.653 221.862 312.653 172.09L311.244 172.09C311.244 221.084 271.526 260.802 222.532 260.802L222.532 262.211ZM312.653 172.09C312.653 122.317 272.305 81.9685 222.532 81.9685L222.532 83.3775C271.527 83.3775 311.244 123.095 311.244 172.09L312.653 172.09ZM222.532 81.9685C172.759 81.9685 132.411 122.317 132.411 172.09L133.82 172.09C133.82 123.095 173.538 83.3775 222.532 83.3775L222.532 81.9685ZM132.411 172.09C132.411 172.541 132.414 172.99 132.421 173.44L133.829 173.419C133.823 172.977 133.82 172.534 133.82 172.09L132.411 172.09ZM133.125 174.134L136.648 174.134L136.648 172.725L133.125 172.725L133.125 174.134ZM135.933 172.09C135.933 172.541 135.937 172.991 135.943 173.44L137.352 173.419C137.345 172.976 137.342 172.533 137.342 172.09L135.933 172.09ZM222.532 85.4909C174.705 85.4909 135.933 124.263 135.933 172.09L137.342 172.09C137.342 125.041 175.483 86.8999 222.532 86.8999L222.532 85.4909ZM309.131 172.09C309.131 124.263 270.359 85.4909 222.532 85.4909L222.532 86.8999C269.581 86.8999 307.722 125.041 307.722 172.09L309.131 172.09Z" fill="#0E47A0" mask="url(#path-16-inside-7)"/>
<path d="M199.876 177.444H194.448L193.416 180.539H190.124L195.717 165.514H198.586L204.21 180.539H200.918L199.876 177.444ZM195.284 174.936H199.04L197.152 169.312L195.284 174.936ZM217.182 175.534C217.065 177.151 216.466 178.424 215.386 179.353C214.313 180.281 212.896 180.746 211.135 180.746C209.208 180.746 207.691 180.099 206.584 178.806C205.483 177.505 204.933 175.724 204.933 173.46V172.542C204.933 171.097 205.187 169.824 205.696 168.724C206.205 167.623 206.931 166.78 207.874 166.195C208.823 165.604 209.924 165.308 211.176 165.308C212.91 165.308 214.306 165.772 215.366 166.701C216.425 167.63 217.037 168.933 217.203 170.612H214.107C214.031 169.642 213.759 168.94 213.291 168.507C212.83 168.067 212.125 167.846 211.176 167.846C210.144 167.846 209.37 168.218 208.854 168.961C208.345 169.697 208.083 170.842 208.07 172.397V173.532C208.07 175.156 208.314 176.343 208.802 177.093C209.298 177.843 210.075 178.218 211.135 178.218C212.091 178.218 212.803 178.001 213.271 177.567C213.745 177.127 214.017 176.449 214.086 175.534H217.182ZM224.117 174.399H222.331V180.539H219.235V165.514H222.331V171.53H223.745L227.419 165.514H231.196L226.562 172.624L231.681 180.539H227.986L224.117 174.399ZM238.512 172.614L241.247 165.514H244.591L239.338 177.908L238.915 178.723C238.137 180.078 236.947 180.756 235.344 180.756L234.261 180.715L234.23 178.228C234.395 178.255 234.663 178.269 235.035 178.269C235.468 178.269 235.816 178.193 236.077 178.042C236.345 177.891 236.569 177.612 236.748 177.206L237.13 176.226L231.856 165.514H235.189L238.512 172.614ZM248.636 175.545C248.725 176.515 249.011 177.213 249.492 177.64C249.974 178.059 250.672 178.269 251.587 178.269C252.599 178.269 253.348 177.935 253.837 177.268C254.325 176.594 254.607 175.6 254.683 174.286H249.936V171.778H254.673C254.59 170.437 254.288 169.442 253.765 168.796C253.249 168.142 252.509 167.815 251.546 167.815C250.61 167.815 249.909 168.039 249.441 168.486C248.973 168.926 248.701 169.639 248.626 170.622H245.53C245.681 168.978 246.28 167.681 247.325 166.732C248.378 165.782 249.785 165.308 251.546 165.308C252.798 165.308 253.895 165.604 254.838 166.195C255.787 166.78 256.517 167.623 257.026 168.724C257.535 169.817 257.789 171.094 257.789 172.552V173.532C257.789 175.748 257.235 177.505 256.128 178.806C255.027 180.099 253.514 180.746 251.587 180.746C249.812 180.746 248.388 180.278 247.315 179.342C246.249 178.4 245.657 177.134 245.54 175.545H248.636Z" fill="#0E47A0"/>
<line x1="120.981" y1="205.223" x2="35.7387" y2="240.447" stroke="#1875D2" stroke-width="3.52241"/>
<line x1="108.952" y1="139.03" x2="37.095" y2="103.021" stroke="#1F88E4" stroke-width="3.52241"/>
<circle cx="26.8179" cy="245.35" r="2.81793" fill="#1875D2"/>
<circle cx="27.523" cy="98.8179" r="2.81793" fill="#1F88E4"/>
<g filter="url(#filter3_d)">
<circle r="7.04482" transform="matrix(0.965926 -0.258818 -0.258821 -0.965925 408.721 245.333)" fill="#F9F9F9"/>
</g>
<mask id="path-24-inside-8" fill="white">
<path fill-rule="evenodd" clip-rule="evenodd" d="M413.604 237.406C418.167 240.183 419.7 246.111 417.015 250.762C414.291 255.48 408.258 257.097 403.54 254.373C398.914 251.702 397.27 245.85 399.776 241.175L396.724 239.413C393.247 245.773 395.468 253.78 401.779 257.423C408.182 261.12 416.369 258.926 420.066 252.524C423.723 246.188 421.614 238.105 415.365 234.355L413.604 237.406Z"/>
</mask>
<path fill-rule="evenodd" clip-rule="evenodd" d="M413.604 237.406C418.167 240.183 419.7 246.111 417.015 250.762C414.291 255.48 408.258 257.097 403.54 254.373C398.914 251.702 397.27 245.85 399.776 241.175L396.724 239.413C393.247 245.773 395.468 253.78 401.779 257.423C408.182 261.12 416.369 258.926 420.066 252.524C423.723 246.188 421.614 238.105 415.365 234.355L413.604 237.406Z" fill="#1875D2"/>
<path d="M413.604 237.406L413.237 238.008L412.649 237.65L412.993 237.053L413.604 237.406ZM399.776 241.175L400.128 240.565L400.719 240.907L400.397 241.508L399.776 241.175ZM396.724 239.413L396.106 239.075L396.452 238.443L397.076 238.803L396.724 239.413ZM415.365 234.355L414.755 234.002L415.113 233.382L415.728 233.751L415.365 234.355ZM413.97 236.804C418.86 239.779 420.502 246.131 417.625 251.115L416.405 250.41C418.898 246.091 417.475 240.586 413.237 238.008L413.97 236.804ZM417.625 251.115C414.707 256.169 408.243 257.901 403.188 254.983L403.893 253.763C408.274 256.292 413.876 254.791 416.405 250.41L417.625 251.115ZM403.188 254.983C398.232 252.121 396.47 245.851 399.155 240.843L400.397 241.508C398.07 245.848 399.597 251.283 403.893 253.763L403.188 254.983ZM397.076 238.803L400.128 240.565L399.424 241.785L396.372 240.024L397.076 238.803ZM401.427 258.033C394.784 254.198 392.445 245.771 396.106 239.075L397.342 239.751C394.048 245.776 396.153 253.361 402.132 256.813L401.427 258.033ZM420.676 252.876C416.785 259.615 408.167 261.925 401.427 258.033L402.132 256.813C408.197 260.315 415.953 258.237 419.455 252.171L420.676 252.876ZM415.728 233.751C422.305 237.698 424.526 246.207 420.676 252.876L419.455 252.171C422.921 246.169 420.922 238.511 415.003 234.959L415.728 233.751ZM412.993 237.053L414.755 234.002L415.975 234.707L414.214 237.758L412.993 237.053Z" fill="#1875D2" mask="url(#path-24-inside-8)"/>
<g filter="url(#filter4_d)">
<circle r="7.04482" transform="matrix(0.258819 -0.965926 -0.965926 -0.258819 407.562 98.6643)" fill="#F9F9F9"/>
</g>
<mask id="path-27-inside-9" fill="white">
<path fill-rule="evenodd" clip-rule="evenodd" d="M403.035 89.9398C407.722 87.3743 413.624 89.0111 416.31 93.6626C419.034 98.3805 417.417 104.413 412.699 107.137C408.073 109.808 402.183 108.306 399.387 103.799L396.336 105.56C400.105 111.752 408.149 113.831 414.46 110.188C420.863 106.491 423.057 98.3041 419.36 91.9014C415.702 85.5651 407.646 83.351 401.273 86.8887L403.035 89.9398Z"/>
</mask>
<path fill-rule="evenodd" clip-rule="evenodd" d="M403.035 89.9398C407.722 87.3743 413.624 89.0111 416.31 93.6626C419.034 98.3805 417.417 104.413 412.699 107.137C408.073 109.808 402.183 108.306 399.387 103.799L396.336 105.56C400.105 111.752 408.149 113.831 414.46 110.188C420.863 106.491 423.057 98.3041 419.36 91.9014C415.702 85.5651 407.646 83.351 401.273 86.8887L403.035 89.9398Z" fill="#1F88E4"/>
<path d="M403.035 89.9398L403.373 90.5577L402.769 90.8884L402.425 90.292L403.035 89.9398ZM399.387 103.799L399.035 103.188L399.626 102.847L399.986 103.427L399.387 103.799ZM396.336 105.56L395.734 105.927L395.359 105.311L395.984 104.95L396.336 105.56ZM401.273 86.8887L400.663 87.2409L400.305 86.6205L400.932 86.2728L401.273 86.8887ZM402.697 89.3218C407.719 86.573 414.042 88.3266 416.92 93.3104L415.7 94.0149C413.206 89.6956 407.725 88.1757 403.373 90.5577L402.697 89.3218ZM416.92 93.3104C419.838 98.3653 418.106 104.829 413.051 107.747L412.347 106.527C416.728 103.998 418.229 98.3958 415.7 94.0149L416.92 93.3104ZM413.051 107.747C408.095 110.609 401.784 108.999 398.789 104.17L399.986 103.427C402.582 107.612 408.051 109.007 412.347 106.527L413.051 107.747ZM395.984 104.95L399.035 103.188L399.74 104.409L396.688 106.17L395.984 104.95ZM414.813 110.798C408.17 114.633 399.702 112.445 395.734 105.927L396.938 105.194C400.508 111.06 408.129 113.029 414.108 109.578L414.813 110.798ZM419.97 91.5492C423.861 98.2888 421.552 106.907 414.813 110.798L414.108 109.578C420.174 106.076 422.252 98.3194 418.75 92.2537L419.97 91.5492ZM400.932 86.2728C407.639 82.5487 416.119 84.8793 419.97 91.5492L418.75 92.2537C415.284 86.2509 407.652 84.1532 401.615 87.5046L400.932 86.2728ZM402.425 90.292L400.663 87.2409L401.884 86.5364L403.645 89.5875L402.425 90.292Z" fill="#1F88E4" mask="url(#path-27-inside-9)"/>
<line y1="-1.7612" x2="92.2333" y2="-1.7612" transform="matrix(0.924203 0.381902 0.381902 -0.924203 315.449 203.595)" stroke="#1875D2" stroke-width="3.52241"/>
<line y1="-1.7612" x2="80.375" y2="-1.7612" transform="matrix(0.894023 -0.448021 -0.448021 -0.894023 326.017 137.456)" stroke="#1F88E4" stroke-width="3.52241"/>
<circle r="2.81793" transform="matrix(-1 0 0 1 407.943 245.35)" fill="#1875D2"/>
<circle r="2.81793" transform="matrix(-1 0 0 1 407.238 98.8179)" fill="#1F88E4"/>
<defs>
<filter id="filter0_d" x="126.649" y="77.41" width="191.619" height="191.619" filterUnits="userSpaceOnUse" color-interpolation-filters="sRGB">
<feFlood flood-opacity="0" result="BackgroundImageFix"/>
<feColorMatrix in="SourceAlpha" type="matrix" values="0 0 0 0 0 0 0 0 0 0 0 0 0 0 0 0 0 0 127 0"/>
<feOffset/>
<feGaussianBlur stdDeviation="9.5105"/>
<feColorMatrix type="matrix" values="0 0 0 0 0 0 0 0 0 0 0 0 0 0 0 0 0 0 0.49 0"/>
<feBlend mode="normal" in2="BackgroundImageFix" result="effect1_dropShadow"/>
<feBlend mode="normal" in="SourceGraphic" in2="effect1_dropShadow" result="shape"/>
</filter>
<filter id="filter1_d" x="0.969475" y="219.265" width="52.1351" height="52.1351" filterUnits="userSpaceOnUse" color-interpolation-filters="sRGB">
<feFlood flood-opacity="0" result="BackgroundImageFix"/>
<feColorMatrix in="SourceAlpha" type="matrix" values="0 0 0 0 0 0 0 0 0 0 0 0 0 0 0 0 0 0 127 0"/>
<feOffset/>
<feGaussianBlur stdDeviation="9.5105"/>
<feColorMatrix type="matrix" values="0 0 0 0 0 0 0 0 0 0 0 0 0 0 0 0 0 0 0.3 0"/>
<feBlend mode="normal" in2="BackgroundImageFix" result="effect1_dropShadow"/>
<feBlend mode="normal" in="SourceGraphic" in2="effect1_dropShadow" result="shape"/>
</filter>
<filter id="filter2_d" x="2.12792" y="72.5967" width="52.1351" height="52.1351" filterUnits="userSpaceOnUse" color-interpolation-filters="sRGB">
<feFlood flood-opacity="0" result="BackgroundImageFix"/>
<feColorMatrix in="SourceAlpha" type="matrix" values="0 0 0 0 0 0 0 0 0 0 0 0 0 0 0 0 0 0 127 0"/>
<feOffset/>
<feGaussianBlur stdDeviation="9.5105"/>
<feColorMatrix type="matrix" values="0 0 0 0 0 0 0 0 0 0 0 0 0 0 0 0 0 0 0.3 0"/>
<feBlend mode="normal" in2="BackgroundImageFix" result="effect1_dropShadow"/>
<feBlend mode="normal" in="SourceGraphic" in2="effect1_dropShadow" result="shape"/>
</filter>
<filter id="filter3_d" x="382.654" y="219.265" width="52.1351" height="52.1351" filterUnits="userSpaceOnUse" color-interpolation-filters="sRGB">
<feFlood flood-opacity="0" result="BackgroundImageFix"/>
<feColorMatrix in="SourceAlpha" type="matrix" values="0 0 0 0 0 0 0 0 0 0 0 0 0 0 0 0 0 0 127 0"/>
<feOffset/>
<feGaussianBlur stdDeviation="9.5105"/>
<feColorMatrix type="matrix" values="0 0 0 0 0 0 0 0 0 0 0 0 0 0 0 0 0 0 0.3 0"/>
<feBlend mode="normal" in2="BackgroundImageFix" result="effect1_dropShadow"/>
<feBlend mode="normal" in="SourceGraphic" in2="effect1_dropShadow" result="shape"/>
</filter>
<filter id="filter4_d" x="381.494" y="72.5967" width="52.1351" height="52.1351" filterUnits="userSpaceOnUse" color-interpolation-filters="sRGB">
<feFlood flood-opacity="0" result="BackgroundImageFix"/>
<feColorMatrix in="SourceAlpha" type="matrix" values="0 0 0 0 0 0 0 0 0 0 0 0 0 0 0 0 0 0 127 0"/>
<feOffset/>
<feGaussianBlur stdDeviation="9.5105"/>
<feColorMatrix type="matrix" values="0 0 0 0 0 0 0 0 0 0 0 0 0 0 0 0 0 0 0.3 0"/>
<feBlend mode="normal" in2="BackgroundImageFix" result="effect1_dropShadow"/>
<feBlend mode="normal" in="SourceGraphic" in2="effect1_dropShadow" result="shape"/>
</filter>
</defs>
</svg>
