<svg width="488" height="349" viewBox="0 0 488 349" fill="none" xmlns="http://www.w3.org/2000/svg">
<g filter="url(#filter0_d)">
<circle cx="244.251" cy="177.354" r="76.4135" fill="#F9F9F9"/>
</g>
<mask id="path-2-inside-1" fill="white">
<path fill-rule="evenodd" clip-rule="evenodd" d="M139.111 177.505C140.127 235.67 187.595 282.509 246.003 282.509C305.048 282.509 352.912 234.644 352.912 175.6C352.912 117.427 306.449 70.1061 248.609 68.7226L248.609 65.2164C308.385 66.6007 356.417 115.491 356.417 175.6C356.417 236.58 306.983 286.014 246.003 286.014C185.66 286.014 136.622 237.606 135.605 177.505L139.111 177.505Z"/>
</mask>
<path fill-rule="evenodd" clip-rule="evenodd" d="M139.111 177.505C140.127 235.67 187.595 282.509 246.003 282.509C305.048 282.509 352.912 234.644 352.912 175.6C352.912 117.427 306.449 70.1061 248.609 68.7226L248.609 65.2164C308.385 66.6007 356.417 115.491 356.417 175.6C356.417 236.58 306.983 286.014 246.003 286.014C185.66 286.014 136.622 237.606 135.605 177.505L139.111 177.505Z" fill="black"/>
<path d="M139.111 177.505L139.812 177.493L139.8 176.804L139.111 176.804L139.111 177.505ZM248.609 68.7226L247.908 68.7226L247.908 69.407L248.592 69.4234L248.609 68.7226ZM248.609 65.2164L248.625 64.5155L247.908 64.4989L247.908 65.2164L248.609 65.2164ZM135.605 177.505L135.605 176.804L134.892 176.804L134.905 177.517L135.605 177.505ZM138.41 177.517C139.433 236.064 187.212 283.21 246.003 283.21L246.003 281.808C187.978 281.808 140.821 235.276 139.812 177.493L138.41 177.517ZM246.003 283.21C305.435 283.21 353.613 235.032 353.613 175.6L352.211 175.6C352.211 234.257 304.66 281.808 246.003 281.808L246.003 283.21ZM353.613 175.6C353.613 117.046 306.846 69.4143 248.626 68.0217L248.592 69.4234C306.053 70.7979 352.211 117.809 352.211 175.6L353.613 175.6ZM247.908 65.2164L247.908 68.7226L249.31 68.7226L249.31 65.2164L247.908 65.2164ZM357.119 175.6C357.119 115.11 308.782 65.9086 248.625 64.5155L248.593 65.9172C307.989 67.2927 355.716 115.873 355.716 175.6L357.119 175.6ZM246.003 286.715C307.371 286.715 357.119 236.967 357.119 175.6L355.716 175.6C355.716 236.193 306.596 285.313 246.003 285.313L246.003 286.715ZM134.905 177.517C135.927 238 185.276 286.715 246.003 286.715L246.003 285.313C186.043 285.313 137.316 237.213 136.306 177.493L134.905 177.517ZM139.111 176.804L135.605 176.804L135.605 178.206L139.111 178.206L139.111 176.804Z" fill="black" mask="url(#path-2-inside-1)"/>
<mask id="path-4-inside-2" fill="white">
<path fill-rule="evenodd" clip-rule="evenodd" d="M139.111 177.505C140.127 235.67 187.595 282.509 246.003 282.509C305.048 282.509 352.912 234.644 352.912 175.6C352.912 117.427 306.449 70.1061 248.609 68.7226L248.609 65.2164C308.385 66.6007 356.417 115.491 356.417 175.6C356.417 236.58 306.983 286.014 246.003 286.014C185.66 286.014 136.622 237.606 135.605 177.505L139.111 177.505Z"/>
</mask>
<path fill-rule="evenodd" clip-rule="evenodd" d="M139.111 177.505C140.127 235.67 187.595 282.509 246.003 282.509C305.048 282.509 352.912 234.644 352.912 175.6C352.912 117.427 306.449 70.1061 248.609 68.7226L248.609 65.2164C308.385 66.6007 356.417 115.491 356.417 175.6C356.417 236.58 306.983 286.014 246.003 286.014C185.66 286.014 136.622 237.606 135.605 177.505L139.111 177.505Z" fill="#1875D2"/>
<path d="M139.111 177.505L139.812 177.493L139.8 176.804L139.111 176.804L139.111 177.505ZM248.609 68.7226L247.908 68.7226L247.908 69.407L248.592 69.4234L248.609 68.7226ZM248.609 65.2164L248.625 64.5155L247.908 64.4989L247.908 65.2164L248.609 65.2164ZM135.605 177.505L135.605 176.804L134.892 176.804L134.905 177.517L135.605 177.505ZM138.41 177.517C139.433 236.064 187.212 283.21 246.003 283.21L246.003 281.808C187.978 281.808 140.821 235.276 139.812 177.493L138.41 177.517ZM246.003 283.21C305.435 283.21 353.613 235.032 353.613 175.6L352.211 175.6C352.211 234.257 304.66 281.808 246.003 281.808L246.003 283.21ZM353.613 175.6C353.613 117.046 306.846 69.4143 248.626 68.0217L248.592 69.4234C306.053 70.7979 352.211 117.809 352.211 175.6L353.613 175.6ZM247.908 65.2164L247.908 68.7226L249.31 68.7226L249.31 65.2164L247.908 65.2164ZM357.119 175.6C357.119 115.11 308.782 65.9086 248.625 64.5155L248.593 65.9172C307.989 67.2927 355.716 115.873 355.716 175.6L357.119 175.6ZM246.003 286.715C307.371 286.715 357.119 236.967 357.119 175.6L355.716 175.6C355.716 236.193 306.596 285.313 246.003 285.313L246.003 286.715ZM134.905 177.517C135.927 238 185.276 286.715 246.003 286.715L246.003 285.313C186.043 285.313 137.316 237.213 136.306 177.493L134.905 177.517ZM139.111 176.804L135.605 176.804L135.605 178.206L139.111 178.206L139.111 176.804Z" fill="#1875D2" mask="url(#path-4-inside-2)"/>
<g filter="url(#filter1_d)">
<circle cx="461.574" cy="26.6297" r="7.01042" fill="#F9F9F9"/>
</g>
<mask id="path-7-inside-3" fill="white">
<path fill-rule="evenodd" clip-rule="evenodd" d="M466.647 34.9834C471.189 32.2204 472.715 26.32 470.043 21.6913C467.332 16.9964 461.329 15.3879 456.634 18.0984C452.03 20.7566 450.394 26.5813 452.889 31.2333L449.852 32.9866C446.39 26.6573 448.601 18.689 454.881 15.0628C461.253 11.3843 469.4 13.5673 473.078 19.9387C476.719 26.2439 474.619 34.2881 468.4 38.0196L466.647 34.9834Z"/>
</mask>
<path fill-rule="evenodd" clip-rule="evenodd" d="M466.647 34.9834C471.189 32.2204 472.715 26.32 470.043 21.6913C467.332 16.9964 461.329 15.3879 456.634 18.0984C452.03 20.7566 450.394 26.5813 452.889 31.2333L449.852 32.9866C446.39 26.6573 448.601 18.689 454.881 15.0628C461.253 11.3843 469.4 13.5673 473.078 19.9387C476.719 26.2439 474.619 34.2881 468.4 38.0196L466.647 34.9834Z" fill="#1875D2"/>
<path d="M466.647 34.9834L466.282 34.3845L465.697 34.7405L466.04 35.3339L466.647 34.9834ZM452.889 31.2333L453.239 31.8405L453.828 31.5008L453.507 30.902L452.889 31.2333ZM449.852 32.9866L449.237 33.323L449.581 33.9524L450.203 33.5937L449.852 32.9866ZM468.4 38.0196L467.793 38.3701L468.149 38.9876L468.76 38.6208L468.4 38.0196ZM467.011 35.5824C471.878 32.6218 473.513 26.3001 470.65 21.3408L469.436 22.0418C471.917 26.3398 470.5 31.8189 466.282 34.3845L467.011 35.5824ZM470.65 21.3408C467.746 16.3106 461.314 14.5871 456.284 17.4913L456.985 18.7056C461.344 16.1886 466.919 17.6823 469.436 22.0418L470.65 21.3408ZM456.284 17.4913C451.351 20.3394 449.598 26.58 452.271 31.5647L453.507 30.902C451.19 26.5826 452.709 21.1738 456.985 18.7056L456.284 17.4913ZM450.203 33.5937L453.239 31.8405L452.538 30.6262L449.501 32.3795L450.203 33.5937ZM454.531 14.4557C447.92 18.2727 445.593 26.6604 449.237 33.323L450.467 32.6502C447.187 26.6543 449.282 19.1052 455.232 15.67L454.531 14.4557ZM473.686 19.5882C469.813 12.8815 461.238 10.5836 454.531 14.4557L455.232 15.67C461.268 12.185 468.986 14.2531 472.471 20.2892L473.686 19.5882ZM468.76 38.6208C475.307 34.6927 477.517 26.2253 473.686 19.5882L472.471 20.2892C475.92 26.2626 473.93 33.8835 468.039 37.4185L468.76 38.6208ZM466.04 35.3339L467.793 38.3701L469.007 37.6691L467.254 34.6329L466.04 35.3339Z" fill="#1875D2" mask="url(#path-7-inside-3)"/>
<g filter="url(#filter2_d)">
<circle cx="451.397" cy="172.979" r="7.01042" transform="rotate(60 451.397 172.979)" fill="#F9F9F9"/>
</g>
<mask id="path-10-inside-4" fill="white">
<path fill-rule="evenodd" clip-rule="evenodd" d="M451.285 182.962C456.6 182.84 460.871 178.493 460.871 173.149C460.871 167.728 456.476 163.333 451.055 163.333C445.739 163.333 441.41 167.559 441.244 172.835H437.738C437.905 165.623 443.803 159.828 451.055 159.828C458.412 159.828 464.376 165.792 464.376 173.149C464.376 180.429 458.536 186.345 451.285 186.468V182.962Z"/>
</mask>
<path fill-rule="evenodd" clip-rule="evenodd" d="M451.285 182.962C456.6 182.84 460.871 178.493 460.871 173.149C460.871 167.728 456.476 163.333 451.055 163.333C445.739 163.333 441.41 167.559 441.244 172.835H437.738C437.905 165.623 443.803 159.828 451.055 159.828C458.412 159.828 464.376 165.792 464.376 173.149C464.376 180.429 458.536 186.345 451.285 186.468V182.962Z" fill="#1564C0"/>
<path d="M451.285 182.962L451.269 182.261L450.584 182.277V182.962H451.285ZM441.244 172.835V173.536H441.924L441.945 172.857L441.244 172.835ZM437.738 172.835L437.037 172.819L437.02 173.536H437.738V172.835ZM451.285 186.468H450.584V187.181L451.297 187.169L451.285 186.468ZM451.302 183.663C456.996 183.532 461.572 178.875 461.572 173.149H460.17C460.17 178.111 456.204 182.148 451.269 182.261L451.302 183.663ZM461.572 173.149C461.572 167.34 456.864 162.632 451.055 162.632V164.034C456.089 164.034 460.17 168.115 460.17 173.149H461.572ZM451.055 162.632C445.359 162.632 440.721 167.16 440.544 172.813L441.945 172.857C442.099 167.958 446.119 164.034 451.055 164.034V162.632ZM437.738 173.536H441.244V172.134H437.738V173.536ZM451.055 159.127C443.421 159.127 437.212 165.227 437.037 172.819L438.439 172.851C438.597 166.019 444.185 160.529 451.055 160.529V159.127ZM465.077 173.149C465.077 165.404 458.799 159.127 451.055 159.127V160.529C458.025 160.529 463.675 166.179 463.675 173.149H465.077ZM451.297 187.169C458.93 187.039 465.077 180.812 465.077 173.149H463.675C463.675 180.046 458.143 185.651 451.274 185.767L451.297 187.169ZM450.584 182.962V186.468H451.987V182.962H450.584Z" fill="#1564C0" mask="url(#path-10-inside-4)"/>
<g filter="url(#filter3_d)">
<circle r="7.01042" transform="matrix(0.500002 0.866024 -0.866027 0.499998 460.634 320.83)" fill="#F9F9F9"/>
</g>
<mask id="path-13-inside-5" fill="white">
<path fill-rule="evenodd" clip-rule="evenodd" d="M456.132 329.648C460.796 332.2 466.668 330.571 469.34 325.942C472.05 321.248 470.442 315.244 465.747 312.534C461.142 309.875 455.28 311.371 452.498 315.858L449.462 314.105C453.212 307.942 461.218 305.872 467.499 309.498C473.871 313.177 476.054 321.324 472.375 327.695C468.735 334 460.72 336.203 454.379 332.684L456.132 329.648Z"/>
</mask>
<path fill-rule="evenodd" clip-rule="evenodd" d="M456.132 329.648C460.796 332.2 466.668 330.571 469.34 325.942C472.05 321.248 470.442 315.244 465.747 312.534C461.142 309.875 455.28 311.371 452.498 315.858L449.462 314.105C453.212 307.942 461.218 305.872 467.499 309.498C473.871 313.177 476.054 321.324 472.375 327.695C468.735 334 460.72 336.203 454.379 332.684L456.132 329.648Z" fill="#0E47A0"/>
<path d="M456.132 329.648L456.468 329.033L455.867 328.704L455.525 329.298L456.132 329.648ZM452.498 315.858L452.148 316.465L452.736 316.805L453.094 316.228L452.498 315.858ZM449.462 314.105L448.863 313.741L448.49 314.354L449.111 314.712L449.462 314.105ZM454.379 332.684L453.772 332.334L453.415 332.951L454.039 333.297L454.379 332.684ZM455.795 330.263C460.792 332.997 467.084 331.252 469.947 326.293L468.733 325.592C466.251 329.889 460.799 331.402 456.468 329.033L455.795 330.263ZM469.947 326.293C472.851 321.263 471.127 314.831 466.097 311.927L465.396 313.141C469.756 315.658 471.25 321.232 468.733 325.592L469.947 326.293ZM466.097 311.927C461.164 309.078 454.883 310.681 451.903 315.489L453.094 316.228C455.677 312.061 461.121 310.672 465.396 313.141L466.097 311.927ZM449.111 314.712L452.148 316.465L452.849 315.251L449.812 313.498L449.111 314.712ZM467.85 308.891C461.238 305.074 452.811 307.253 448.863 313.741L450.061 314.47C453.613 308.631 461.199 306.67 467.149 310.105L467.85 308.891ZM472.982 328.046C476.854 321.339 474.557 312.763 467.85 308.891L467.149 310.105C473.185 313.59 475.253 321.308 471.768 327.344L472.982 328.046ZM454.039 333.297C460.713 337.002 469.151 334.682 472.982 328.046L471.768 327.344C468.32 333.317 460.726 335.405 454.719 332.071L454.039 333.297ZM455.525 329.298L453.772 332.334L454.986 333.035L456.739 329.999L455.525 329.298Z" fill="#0E47A0" mask="url(#path-13-inside-5)"/>
<g filter="url(#filter4_d)">
<circle cx="25.9482" cy="322.642" r="7.01042" transform="rotate(-165 25.9482 322.642)" fill="#F9F9F9"/>
</g>
<mask id="path-16-inside-6" fill="white">
<path fill-rule="evenodd" clip-rule="evenodd" d="M21.0914 314.755C16.5488 317.518 15.0229 323.418 17.6953 328.047C20.4058 332.742 26.4091 334.351 31.104 331.64C35.7079 328.982 37.344 323.157 34.8496 318.506L37.8863 316.752C41.3479 323.081 39.1371 331.05 32.8566 334.676C26.4852 338.354 18.3382 336.171 14.6597 329.8C11.0193 323.494 13.1194 315.45 19.3385 311.719L21.0914 314.755Z"/>
</mask>
<path fill-rule="evenodd" clip-rule="evenodd" d="M21.0914 314.755C16.5488 317.518 15.0229 323.418 17.6953 328.047C20.4058 332.742 26.4091 334.351 31.104 331.64C35.7079 328.982 37.344 323.157 34.8496 318.506L37.8863 316.752C41.3479 323.081 39.1371 331.05 32.8566 334.676C26.4852 338.354 18.3382 336.171 14.6597 329.8C11.0193 323.494 13.1194 315.45 19.3385 311.719L21.0914 314.755Z" fill="#1F88E4"/>
<path d="M21.0914 314.755L21.4557 315.354L22.0412 314.998L21.6986 314.404L21.0914 314.755ZM34.8496 318.506L34.4991 317.898L33.9107 318.238L34.2318 318.837L34.8496 318.506ZM37.8863 316.752L38.5014 316.416L38.1571 315.786L37.5358 316.145L37.8863 316.752ZM19.3385 311.719L19.9456 311.368L19.5891 310.751L18.9778 311.118L19.3385 311.719ZM20.7271 314.156C15.8597 317.116 14.2248 323.438 17.0881 328.398L18.3024 327.697C15.8209 323.399 17.2378 317.919 21.4557 315.354L20.7271 314.156ZM17.0881 328.398C19.9923 333.428 26.4244 335.151 31.4545 332.247L30.7535 331.033C26.3939 333.55 20.8194 332.056 18.3024 327.697L17.0881 328.398ZM31.4545 332.247C36.3873 329.399 38.1401 323.159 35.4674 318.174L34.2318 318.837C36.5478 323.156 35.0285 328.565 30.7535 331.033L31.4545 332.247ZM37.5358 316.145L34.4991 317.898L35.2001 319.113L38.2369 317.359L37.5358 316.145ZM33.2071 335.283C39.8182 331.466 42.1453 323.078 38.5014 316.416L37.2713 317.089C40.5505 323.085 38.456 330.633 32.5061 334.068L33.2071 335.283ZM14.0525 330.15C17.9246 336.857 26.5005 339.155 33.2071 335.283L32.5061 334.068C26.47 337.553 18.7517 335.485 15.2668 329.449L14.0525 330.15ZM18.9778 311.118C12.4313 315.046 10.2206 323.513 14.0525 330.15L15.2668 329.449C11.818 323.476 13.8076 315.855 19.6992 312.32L18.9778 311.118ZM21.6986 314.404L19.9456 311.368L18.7314 312.069L20.4843 315.105L21.6986 314.404Z" fill="#1F88E4" mask="url(#path-16-inside-6)"/>
<g filter="url(#filter5_d)">
<circle cx="36.8423" cy="175.35" r="7.01042" transform="rotate(-135 36.8423 175.35)" fill="#F9F9F9"/>
</g>
<mask id="path-19-inside-7" fill="white">
<path fill-rule="evenodd" clip-rule="evenodd" d="M36.5143 165.436C31.1993 165.558 26.9282 169.905 26.9282 175.249C26.9282 180.67 31.323 185.065 36.7441 185.065C42.059 185.065 46.3873 180.841 46.555 175.567L50.0615 175.567C49.8928 182.777 43.995 188.57 36.7441 188.57C29.3871 188.57 23.423 182.606 23.423 175.249C23.423 167.969 29.2633 162.053 36.5143 161.93L36.5143 165.436Z"/>
</mask>
<path fill-rule="evenodd" clip-rule="evenodd" d="M36.5143 165.436C31.1993 165.558 26.9282 169.905 26.9282 175.249C26.9282 180.67 31.323 185.065 36.7441 185.065C42.059 185.065 46.3873 180.841 46.555 175.567L50.0615 175.567C49.8928 182.777 43.995 188.57 36.7441 188.57C29.3871 188.57 23.423 182.606 23.423 175.249C23.423 167.969 29.2633 162.053 36.5143 161.93L36.5143 165.436Z" fill="#2196F3"/>
<path d="M36.5143 165.436L36.5304 166.137L37.2153 166.121L37.2153 165.436L36.5143 165.436ZM46.555 175.567L46.555 174.866L45.8759 174.866L45.8543 175.545L46.555 175.567ZM50.0615 175.567L50.7624 175.583L50.7792 174.866L50.0615 174.866L50.0615 175.567ZM36.5143 161.93L37.2153 161.93L37.2153 161.217L36.5024 161.229L36.5143 161.93ZM36.4982 164.735C30.8033 164.866 26.2272 169.523 26.2272 175.249L27.6293 175.249C27.6293 170.287 31.5953 166.25 36.5304 166.137L36.4982 164.735ZM26.2272 175.249C26.2272 181.058 30.9358 185.766 36.7441 185.766L36.7441 184.364C31.7101 184.364 27.6293 180.283 27.6293 175.249L26.2272 175.249ZM36.7441 185.766C42.4387 185.766 47.076 181.241 47.2557 175.589L45.8543 175.545C45.6986 180.442 41.6793 184.364 36.7441 184.364L36.7441 185.766ZM50.0615 174.866L46.555 174.866L46.555 176.268L50.0615 176.268L50.0615 174.866ZM36.7441 189.271C44.3767 189.271 50.5847 183.173 50.7624 175.583L49.3607 175.551C49.2008 182.381 43.6133 187.869 36.7441 187.869L36.7441 189.271ZM22.722 175.249C22.722 182.994 28.9999 189.271 36.7441 189.271L36.7441 187.869C29.7743 187.869 24.1241 182.219 24.1241 175.249L22.722 175.249ZM36.5024 161.229C28.8696 161.358 22.722 167.586 22.722 175.249L24.1241 175.249C24.1241 168.352 29.657 162.747 36.5261 162.631L36.5024 161.229ZM37.2153 165.436L37.2153 161.93L35.8132 161.93L35.8132 165.436L37.2153 165.436Z" fill="#2196F3" mask="url(#path-19-inside-7)"/>
<g filter="url(#filter6_d)">
<circle cx="27.8026" cy="28.7711" r="7.01042" transform="rotate(-105 27.8026 28.7711)" fill="#F9F9F9"/>
</g>
<mask id="path-22-inside-8" fill="white">
<path fill-rule="evenodd" clip-rule="evenodd" d="M32.3077 20.0869C27.6434 17.5336 21.77 19.1624 19.0974 23.7913C16.3869 28.4862 17.9954 34.4895 22.6903 37.2001C27.2936 39.8578 33.1549 38.3632 35.9368 33.8783L38.9735 35.6316C35.2227 41.7927 27.2177 43.8614 20.9377 40.2357C14.5663 36.5572 12.3833 28.4101 16.0618 22.0387C19.7023 15.7332 27.7195 13.5299 34.0607 17.0507L32.3077 20.0869Z"/>
</mask>
<path fill-rule="evenodd" clip-rule="evenodd" d="M32.3077 20.0869C27.6434 17.5336 21.77 19.1624 19.0974 23.7913C16.3869 28.4862 17.9954 34.4895 22.6903 37.2001C27.2936 39.8578 33.1549 38.3632 35.9368 33.8783L38.9735 35.6316C35.2227 41.7927 27.2177 43.8614 20.9377 40.2357C14.5663 36.5572 12.3833 28.4101 16.0618 22.0387C19.7023 15.7332 27.7195 13.5299 34.0607 17.0507L32.3077 20.0869Z" fill="#42A5F6"/>
<path d="M32.3077 20.0869L31.9711 20.7018L32.5722 21.0308L32.9148 20.4374L32.3077 20.0869ZM35.9368 33.8783L36.2873 33.2712L35.6991 32.9316L35.3411 33.5088L35.9368 33.8783ZM38.9735 35.6316L39.5723 35.9961L39.9455 35.3832L39.3241 35.0245L38.9735 35.6316ZM34.0607 17.0507L34.6678 17.4012L35.0242 16.7838L34.401 16.4378L34.0607 17.0507ZM32.6443 19.4719C27.6466 16.7362 21.3538 18.4812 18.4903 23.4408L19.7046 24.1419C22.1862 19.8436 27.6402 18.3311 31.9711 20.7018L32.6443 19.4719ZM18.4903 23.4408C15.5862 28.471 17.3096 34.903 22.3398 37.8072L23.0408 36.593C18.6813 34.076 17.1876 28.5014 19.7046 24.1419L18.4903 23.4408ZM22.3398 37.8072C27.272 40.6548 33.5517 39.0534 36.5325 34.2479L35.3411 33.5088C32.7581 37.673 27.3153 39.0608 23.0408 36.593L22.3398 37.8072ZM39.3241 35.0245L36.2873 33.2712L35.5863 34.4854L38.623 36.2387L39.3241 35.0245ZM20.5872 40.8428C27.1977 44.6594 35.6239 42.4817 39.5723 35.9961L38.3747 35.267C34.8214 41.1036 27.2376 43.0634 21.2882 39.6286L20.5872 40.8428ZM15.4547 21.6882C11.5826 28.3949 13.8805 36.9707 20.5872 40.8428L21.2882 39.6286C15.2521 36.1436 13.184 28.4253 16.669 22.3892L15.4547 21.6882ZM34.401 16.4378C27.7258 12.7316 19.2868 15.0508 15.4547 21.6882L16.669 22.3892C20.1178 16.4156 27.7131 14.3282 33.7204 17.6636L34.401 16.4378ZM32.9148 20.4374L34.6678 17.4012L33.4535 16.7001L31.7006 19.7363L32.9148 20.4374Z" fill="#42A5F6" mask="url(#path-22-inside-8)"/>
<mask id="path-24-inside-9" fill="white">
<path fill-rule="evenodd" clip-rule="evenodd" d="M160.663 94.4996C116.233 140.507 116.722 213.822 162.129 259.229C208.029 305.13 282.449 305.13 328.35 259.229C373.575 214.004 374.24 141.092 330.346 95.0524L332.825 92.5731C378.088 139.983 377.422 215.113 330.828 261.708C283.559 308.977 206.92 308.977 159.65 261.708C112.874 214.932 112.386 139.397 158.184 92.0206L160.663 94.4996Z"/>
</mask>
<path fill-rule="evenodd" clip-rule="evenodd" d="M160.663 94.4996C116.233 140.507 116.722 213.822 162.129 259.229C208.029 305.13 282.449 305.13 328.35 259.229C373.575 214.004 374.24 141.092 330.346 95.0524L332.825 92.5731C378.088 139.983 377.422 215.113 330.828 261.708C283.559 308.977 206.92 308.977 159.65 261.708C112.874 214.932 112.386 139.397 158.184 92.0206L160.663 94.4996Z" fill="#1F88E4"/>
<path d="M160.663 94.4996L161.167 94.9865L161.646 94.491L161.159 94.0039L160.663 94.4996ZM330.346 95.0524L329.85 94.5567L329.366 95.0407L329.838 95.5361L330.346 95.0524ZM332.825 92.5731L333.332 92.089L332.836 91.5701L332.329 92.0774L332.825 92.5731ZM158.184 92.0206L158.68 91.5249L158.176 91.0208L157.68 91.5334L158.184 92.0206ZM160.159 94.0126C115.464 140.294 115.955 214.047 161.633 259.725L162.624 258.733C117.488 213.598 117.003 140.719 161.167 94.9865L160.159 94.0126ZM161.633 259.725C207.807 305.899 282.671 305.899 328.845 259.725L327.854 258.733C282.227 304.36 208.251 304.36 162.624 258.733L161.633 259.725ZM328.845 259.725C374.34 214.23 375.01 140.883 330.853 94.5686L329.838 95.5361C373.471 141.301 372.809 213.778 327.854 258.733L328.845 259.725ZM332.329 92.0774L329.85 94.5567L330.841 95.5481L333.321 93.0689L332.329 92.0774ZM331.324 262.203C378.188 215.339 378.857 139.773 333.332 92.089L332.318 93.0572C377.319 140.192 376.657 214.888 330.332 261.212L331.324 262.203ZM159.154 262.203C206.698 309.747 283.781 309.747 331.324 262.203L330.332 261.212C283.337 308.208 207.142 308.208 160.146 261.212L159.154 262.203ZM157.68 91.5334C111.616 139.185 112.108 215.157 159.154 262.203L160.146 261.212C113.641 214.707 113.155 139.61 158.688 92.5079L157.68 91.5334ZM161.159 94.0039L158.68 91.5249L157.688 92.5164L160.167 94.9953L161.159 94.0039Z" fill="#1F88E4" mask="url(#path-24-inside-9)"/>
<mask id="path-26-inside-10" fill="white">
<path fill-rule="evenodd" clip-rule="evenodd" d="M242.978 47.9475C173.226 49.1598 117.056 106.081 117.056 176.123C117.056 246.923 174.45 304.317 245.25 304.317C315.012 304.317 371.758 248.595 373.408 179.231L376.915 179.231C375.263 250.531 316.947 307.823 245.25 307.823C172.514 307.823 113.55 248.859 113.55 176.123C113.55 104.146 171.29 45.6544 242.978 44.4417L242.978 47.9475Z"/>
</mask>
<path fill-rule="evenodd" clip-rule="evenodd" d="M242.978 47.9475C173.226 49.1598 117.056 106.081 117.056 176.123C117.056 246.923 174.45 304.317 245.25 304.317C315.012 304.317 371.758 248.595 373.408 179.231L376.915 179.231C375.263 250.531 316.947 307.823 245.25 307.823C172.514 307.823 113.55 248.859 113.55 176.123C113.55 104.146 171.29 45.6544 242.978 44.4417L242.978 47.9475Z" fill="#2196F3"/>
<path d="M242.978 47.9475L242.99 48.6484L243.679 48.6364L243.679 47.9475L242.978 47.9475ZM373.408 179.231L373.408 178.53L372.724 178.53L372.708 179.214L373.408 179.231ZM376.915 179.231L377.615 179.247L377.632 178.53L376.915 178.53L376.915 179.231ZM242.978 44.4417L243.679 44.4417L243.679 43.7287L242.966 43.7408L242.978 44.4417ZM242.966 47.2465C172.833 48.4655 116.355 105.698 116.355 176.123L117.757 176.123C117.757 106.465 173.62 49.8541 242.99 48.6484L242.966 47.2465ZM116.355 176.123C116.355 247.31 174.063 305.018 245.25 305.018L245.25 303.616C174.838 303.616 117.757 246.535 117.757 176.123L116.355 176.123ZM245.25 305.018C315.393 305.018 372.45 248.991 374.109 179.247L372.708 179.214C371.066 248.198 314.63 303.616 245.25 303.616L245.25 305.018ZM376.915 178.53L373.408 178.53L373.408 179.932L376.915 179.932L376.915 178.53ZM245.25 308.524C317.329 308.524 375.955 250.927 377.615 179.247L376.214 179.214C374.571 250.135 316.566 307.122 245.25 307.122L245.25 308.524ZM112.849 176.123C112.849 249.246 172.127 308.524 245.25 308.524L245.25 307.122C172.902 307.122 114.251 248.471 114.251 176.123L112.849 176.123ZM242.966 43.7408C170.897 44.9599 112.849 103.762 112.849 176.123L114.251 176.123C114.251 104.529 171.684 46.3489 242.99 45.1426L242.966 43.7408ZM243.679 47.9475L243.679 44.4417L242.277 44.4417L242.277 47.9475L243.679 47.9475Z" fill="#2196F3" mask="url(#path-26-inside-10)"/>
<mask id="path-28-inside-11" fill="white">
<path fill-rule="evenodd" clip-rule="evenodd" d="M385.852 173.848C384.531 97.7429 322.425 36.455 246.005 36.455C168.758 36.455 106.137 99.0761 106.137 176.323C106.137 252.44 166.938 314.355 242.622 316.151L242.622 319.658C165.002 317.86 102.632 254.376 102.632 176.323C102.632 97.1403 166.822 32.9498 246.005 32.9498C324.361 32.9498 388.037 95.8069 389.358 173.848L385.852 173.848Z"/>
</mask>
<path fill-rule="evenodd" clip-rule="evenodd" d="M385.852 173.848C384.531 97.7429 322.425 36.455 246.005 36.455C168.758 36.455 106.137 99.0761 106.137 176.323C106.137 252.44 166.938 314.355 242.622 316.151L242.622 319.658C165.002 317.86 102.632 254.376 102.632 176.323C102.632 97.1403 166.822 32.9498 246.005 32.9498C324.361 32.9498 388.037 95.8069 389.358 173.848L385.852 173.848Z" fill="#42A5F6"/>
<path d="M385.852 173.848L385.151 173.86L385.163 174.549L385.852 174.549L385.852 173.848ZM242.622 316.151L243.323 316.151L243.323 315.467L242.639 315.451L242.622 316.151ZM242.622 319.658L242.606 320.358L243.323 320.375L243.323 319.658L242.622 319.658ZM389.358 173.848L389.358 174.549L390.071 174.549L390.059 173.836L389.358 173.848ZM386.553 173.836C385.226 97.349 322.809 35.7539 246.005 35.7539L246.005 37.156C322.042 37.156 383.837 98.1367 385.151 173.86L386.553 173.836ZM246.005 35.7539C168.371 35.7539 105.436 98.689 105.436 176.323L106.838 176.323C106.838 99.4633 169.145 37.156 246.005 37.156L246.005 35.7539ZM105.436 176.323C105.436 252.821 166.542 315.047 242.606 316.852L242.639 315.451C167.334 313.663 106.838 252.058 106.838 176.323L105.436 176.323ZM243.323 319.658L243.323 316.151L241.921 316.151L241.921 319.658L243.323 319.658ZM101.931 176.323C101.931 254.757 164.606 318.553 242.606 320.358L242.639 318.957C165.398 317.168 103.333 253.994 103.333 176.323L101.931 176.323ZM246.005 32.2487C166.435 32.2487 101.931 96.7531 101.931 176.323L103.333 176.323C103.333 97.5274 167.209 33.6508 246.005 33.6508L246.005 32.2487ZM390.059 173.836C388.731 95.4132 324.745 32.2487 246.005 32.2487L246.005 33.6508C323.978 33.6508 387.342 96.2006 388.657 173.86L390.059 173.836ZM385.852 174.549L389.358 174.549L389.358 173.147L385.852 173.147L385.852 174.549Z" fill="#42A5F6" mask="url(#path-28-inside-11)"/>
<mask id="path-30-inside-12" fill="white">
<path fill-rule="evenodd" clip-rule="evenodd" d="M312.339 244.04C274.776 281.603 213.875 281.603 176.312 244.04C175.992 243.72 175.675 243.398 175.36 243.075L172.881 245.554C173.196 245.877 173.514 246.199 173.834 246.519C212.765 285.45 275.886 285.45 314.817 246.519C353.749 207.587 353.749 144.466 314.817 105.535C275.886 66.6034 212.765 66.6034 173.834 105.535C173.48 105.888 173.13 106.244 172.783 106.602L175.261 109.08C175.608 108.723 175.959 108.367 176.312 108.013C213.875 70.4508 274.776 70.4508 312.339 108.013C349.901 145.576 349.901 206.477 312.339 244.04Z"/>
</mask>
<path fill-rule="evenodd" clip-rule="evenodd" d="M312.339 244.04C274.776 281.603 213.875 281.603 176.312 244.04C175.992 243.72 175.675 243.398 175.36 243.075L172.881 245.554C173.196 245.877 173.514 246.199 173.834 246.519C212.765 285.45 275.886 285.45 314.817 246.519C353.749 207.587 353.749 144.466 314.817 105.535C275.886 66.6034 212.765 66.6034 173.834 105.535C173.48 105.888 173.13 106.244 172.783 106.602L175.261 109.08C175.608 108.723 175.959 108.367 176.312 108.013C213.875 70.4508 274.776 70.4508 312.339 108.013C349.901 145.576 349.901 206.477 312.339 244.04Z" fill="#1564C0"/>
<path d="M175.36 243.075L175.863 242.586L175.367 242.077L174.865 242.579L175.36 243.075ZM172.881 245.554L172.386 245.058L171.897 245.547L172.379 246.043L172.881 245.554ZM172.783 106.602L172.28 106.113L171.798 106.609L172.287 107.097L172.783 106.602ZM175.261 109.08L174.766 109.576L175.269 110.079L175.765 109.569L175.261 109.08ZM175.816 244.536C213.653 282.372 274.998 282.372 312.834 244.536L311.843 243.544C274.554 280.833 214.097 280.833 176.808 243.544L175.816 244.536ZM174.858 243.564C175.175 243.889 175.494 244.213 175.816 244.536L176.808 243.544C176.49 243.227 176.175 242.907 175.863 242.586L174.858 243.564ZM174.865 242.579L172.386 245.058L173.377 246.049L175.856 243.571L174.865 242.579ZM172.379 246.043C172.696 246.368 173.016 246.692 173.338 247.014L174.329 246.023C174.012 245.705 173.696 245.386 173.384 245.065L172.379 246.043ZM173.338 247.014C212.543 286.22 276.108 286.22 315.313 247.014L314.322 246.023C275.664 284.681 212.987 284.681 174.329 246.023L173.338 247.014ZM315.313 247.014C354.518 207.809 354.518 144.245 315.313 105.039L314.322 106.031C352.979 144.688 352.979 207.365 314.322 246.023L315.313 247.014ZM315.313 105.039C276.108 65.8339 212.543 65.8339 173.338 105.039L174.329 106.031C212.987 67.3728 275.664 67.3728 314.322 106.031L315.313 105.039ZM173.338 105.039C172.982 105.395 172.629 105.753 172.28 106.113L173.285 107.09C173.63 106.735 173.978 106.382 174.329 106.031L173.338 105.039ZM172.287 107.097L174.766 109.576L175.757 108.585L173.278 106.106L172.287 107.097ZM175.816 107.518C175.46 107.874 175.108 108.232 174.758 108.592L175.765 109.569C176.109 109.213 176.457 108.86 176.808 108.509L175.816 107.518ZM312.834 107.518C274.998 69.6813 213.653 69.6813 175.816 107.518L176.808 108.509C214.097 71.2203 274.554 71.2203 311.843 108.509L312.834 107.518ZM312.834 244.536C350.671 206.699 350.671 145.354 312.834 107.518L311.843 108.509C349.132 145.798 349.132 206.255 311.843 243.544L312.834 244.536Z" fill="#1564C0" mask="url(#path-30-inside-12)"/>
<mask id="path-32-inside-13" fill="white">
<path fill-rule="evenodd" clip-rule="evenodd" d="M329.8 176.228C329.8 223.434 291.531 261.703 244.325 261.703C243.92 261.703 243.517 261.7 243.114 261.694L243.114 265.2C243.517 265.205 243.92 265.208 244.325 265.208C293.467 265.208 333.305 225.37 333.305 176.228C333.305 127.085 293.467 87.2475 244.325 87.2475C195.182 87.2474 155.344 127.085 155.344 176.228C155.344 176.674 155.348 177.119 155.354 177.563L158.86 177.563C158.853 177.119 158.85 176.674 158.85 176.228C158.85 129.021 197.118 90.7527 244.325 90.7527C291.531 90.7527 329.8 129.021 329.8 176.228Z"/>
</mask>
<path fill-rule="evenodd" clip-rule="evenodd" d="M329.8 176.228C329.8 223.434 291.531 261.703 244.325 261.703C243.92 261.703 243.517 261.7 243.114 261.694L243.114 265.2C243.517 265.205 243.92 265.208 244.325 265.208C293.467 265.208 333.305 225.37 333.305 176.228C333.305 127.085 293.467 87.2475 244.325 87.2475C195.182 87.2474 155.344 127.085 155.344 176.228C155.344 176.674 155.348 177.119 155.354 177.563L158.86 177.563C158.853 177.119 158.85 176.674 158.85 176.228C158.85 129.021 197.118 90.7527 244.325 90.7527C291.531 90.7527 329.8 129.021 329.8 176.228Z" fill="#0E47A0"/>
<path d="M243.114 261.694L243.123 260.993L242.413 260.983L242.413 261.694L243.114 261.694ZM243.114 265.2L242.413 265.2L242.413 265.892L243.104 265.901L243.114 265.2ZM155.354 177.563L154.653 177.574L154.663 178.264L155.354 178.264L155.354 177.563ZM158.86 177.563L158.86 178.264L159.572 178.264L159.561 177.553L158.86 177.563ZM244.325 262.404C291.918 262.404 330.501 223.821 330.501 176.228L329.099 176.228C329.099 223.047 291.144 261.002 244.325 261.002L244.325 262.404ZM243.104 262.395C243.51 262.401 243.917 262.404 244.325 262.404L244.325 261.002C243.924 261.002 243.523 260.999 243.123 260.993L243.104 262.395ZM242.413 261.694L242.413 265.2L243.815 265.2L243.815 261.694L242.413 261.694ZM243.104 265.901C243.51 265.906 243.917 265.909 244.325 265.909L244.325 264.507C243.923 264.507 243.523 264.504 243.123 264.499L243.104 265.901ZM244.325 265.909C293.854 265.909 334.006 225.757 334.006 176.228L332.604 176.228C332.604 224.983 293.08 264.507 244.325 264.507L244.325 265.909ZM334.006 176.228C334.006 126.698 293.854 86.5464 244.325 86.5464L244.325 87.9485C293.08 87.9485 332.604 127.472 332.604 176.228L334.006 176.228ZM244.325 86.5464C194.795 86.5464 154.643 126.698 154.643 176.228L156.046 176.228C156.046 127.472 195.569 87.9485 244.325 87.9485L244.325 86.5464ZM154.643 176.228C154.643 176.677 154.647 177.126 154.653 177.574L156.055 177.553C156.049 177.112 156.046 176.67 156.046 176.228L154.643 176.228ZM155.354 178.264L158.86 178.264L158.86 176.862L155.354 176.862L155.354 178.264ZM158.149 176.228C158.149 176.677 158.152 177.126 158.159 177.574L159.561 177.553C159.554 177.112 159.551 176.67 159.551 176.228L158.149 176.228ZM244.325 90.0516C196.731 90.0516 158.149 128.634 158.149 176.228L159.551 176.228C159.551 129.408 197.505 91.4537 244.325 91.4537L244.325 90.0516ZM330.501 176.228C330.501 128.634 291.918 90.0516 244.325 90.0516L244.325 91.4537C291.144 91.4537 329.099 129.408 329.099 176.228L330.501 176.228Z" fill="#0E47A0" mask="url(#path-32-inside-13)"/>
<line x1="335.804" y1="112.108" x2="453.579" y2="32.1891" stroke="#1875D2" stroke-width="3.50521"/>
<line x1="342.396" y1="174.199" x2="441.243" y2="174.199" stroke="#1564C0" stroke-width="3.50521"/>
<line x1="316.746" y1="224.28" x2="452.047" y2="316.818" stroke="#0E47A0" stroke-width="3.50521"/>
<line x1="95.6299" y1="175.601" x2="102.57" y2="175.601" stroke="#FF0000" stroke-width="0.701042"/>
<line x1="148.43" y1="246.846" x2="34.1602" y2="317.651" stroke="#1F88E4" stroke-width="3.50521"/>
<line x1="115.259" y1="174.199" x2="46.557" y2="174.199" stroke="#2196F3" stroke-width="3.50521"/>
<line x1="126.839" y1="99.5467" x2="36.4045" y2="32.9478" stroke="#42A5F6" stroke-width="3.50521"/>
<circle cx="461.574" cy="26.6305" r="2.80417" fill="#1875D2"/>
<circle cx="451.635" cy="173.218" r="2.80417" fill="#1564C0"/>
<circle cx="460.804" cy="320.804" r="2.80417" fill="#0E47A0"/>
<circle cx="25.8042" cy="322.804" r="2.80417" fill="#1F88E4"/>
<circle cx="36.8042" cy="174.804" r="2.80417" fill="#2196F3"/>
<circle cx="27.8042" cy="28.8042" r="2.80417" fill="#42A5F6"/>
<path d="M218.686 169.54H213.285L212.258 172.621H208.982L214.548 157.669H217.402L222.999 172.621H219.723L218.686 169.54ZM214.116 167.044H217.854L215.975 161.448L214.116 167.044ZM235.908 167.64C235.791 169.249 235.196 170.515 234.121 171.44C233.053 172.364 231.642 172.826 229.89 172.826C227.973 172.826 226.463 172.182 225.361 170.895C224.266 169.601 223.718 167.828 223.718 165.576V164.662C223.718 163.224 223.971 161.958 224.478 160.862C224.985 159.767 225.707 158.928 226.645 158.346C227.589 157.758 228.685 157.463 229.931 157.463C231.656 157.463 233.046 157.925 234.1 158.85C235.154 159.774 235.764 161.071 235.928 162.742H232.847C232.772 161.776 232.502 161.078 232.036 160.647C231.577 160.209 230.876 159.989 229.931 159.989C228.904 159.989 228.134 160.359 227.62 161.099C227.114 161.831 226.854 162.971 226.84 164.518V165.648C226.84 167.263 227.083 168.444 227.569 169.191C228.062 169.937 228.835 170.31 229.89 170.31C230.841 170.31 231.55 170.094 232.016 169.663C232.488 169.225 232.758 168.551 232.827 167.64H235.908ZM242.808 166.51H241.032V172.621H237.951V157.669H241.032V163.656H242.439L246.095 157.669H249.853L245.242 164.744L250.336 172.621H246.659L242.808 166.51ZM257.134 164.734L259.855 157.669H263.182L257.955 170.002L257.534 170.813C256.761 172.162 255.576 172.836 253.981 172.836L252.903 172.795L252.872 170.32C253.036 170.348 253.303 170.361 253.673 170.361C254.104 170.361 254.45 170.286 254.71 170.135C254.977 169.985 255.2 169.708 255.378 169.304L255.758 168.328L250.51 157.669H253.827L257.134 164.734ZM267.208 167.65C267.297 168.616 267.581 169.31 268.06 169.735C268.54 170.153 269.234 170.361 270.145 170.361C271.151 170.361 271.898 170.029 272.384 169.365C272.87 168.694 273.15 167.705 273.226 166.397H268.502V163.902H273.215C273.133 162.567 272.832 161.578 272.312 160.934C271.798 160.284 271.062 159.959 270.104 159.959C269.173 159.959 268.474 160.181 268.009 160.626C267.543 161.064 267.273 161.773 267.198 162.752H264.117C264.268 161.116 264.863 159.825 265.904 158.88C266.951 157.936 268.351 157.463 270.104 157.463C271.35 157.463 272.442 157.758 273.38 158.346C274.324 158.928 275.05 159.767 275.557 160.862C276.063 161.951 276.317 163.221 276.317 164.672V165.648C276.317 167.852 275.766 169.601 274.663 170.895C273.568 172.182 272.062 172.826 270.145 172.826C268.379 172.826 266.961 172.36 265.893 171.429C264.832 170.491 264.244 169.232 264.127 167.65H267.208ZM189.974 191.621H188.7V188.937C188.143 189.083 187.573 189.156 186.989 189.156C186.062 189.156 185.355 188.919 184.866 188.444C184.383 187.969 184.136 187.294 184.127 186.418V184.206H185.393V186.459C185.416 187.563 185.948 188.115 186.989 188.115C187.573 188.115 188.143 188.042 188.7 187.896V184.213H189.974V191.621ZM197.511 185.24H195.026V191.621H193.759V185.24H191.322V184.213H197.511V185.24ZM198.12 187.848C198.12 187.123 198.262 186.47 198.545 185.89C198.832 185.311 199.229 184.863 199.736 184.549C200.247 184.234 200.829 184.076 201.482 184.076C202.491 184.076 203.305 184.425 203.926 185.124C204.551 185.822 204.864 186.751 204.864 187.91V187.999C204.864 188.72 204.725 189.368 204.446 189.943C204.172 190.514 203.778 190.959 203.262 191.278C202.751 191.598 202.162 191.757 201.496 191.757C200.491 191.757 199.677 191.408 199.051 190.71C198.431 190.012 198.12 189.087 198.12 187.937V187.848ZM199.394 187.999C199.394 188.821 199.583 189.48 199.962 189.977C200.345 190.475 200.857 190.724 201.496 190.724C202.139 190.724 202.65 190.473 203.029 189.971C203.408 189.464 203.597 188.757 203.597 187.848C203.597 187.036 203.403 186.379 203.015 185.877C202.632 185.37 202.121 185.117 201.482 185.117C200.857 185.117 200.352 185.365 199.969 185.863C199.585 186.36 199.394 187.072 199.394 187.999ZM214.195 189.943L216.714 184.213H218.296V191.621H217.029V186.233L214.633 191.621H213.757L211.313 186.116V191.621H210.046V184.213H211.689L214.195 189.943ZM220.001 187.848C220.001 187.123 220.142 186.47 220.425 185.89C220.713 185.311 221.11 184.863 221.616 184.549C222.127 184.234 222.709 184.076 223.362 184.076C224.371 184.076 225.185 184.425 225.806 185.124C226.431 185.822 226.744 186.751 226.744 187.91V187.999C226.744 188.72 226.605 189.368 226.326 189.943C226.053 190.514 225.658 190.959 225.142 191.278C224.631 191.598 224.042 191.757 223.376 191.757C222.372 191.757 221.557 191.408 220.932 190.71C220.311 190.012 220.001 189.087 220.001 187.937V187.848ZM221.274 187.999C221.274 188.821 221.463 189.48 221.842 189.977C222.226 190.475 222.737 190.724 223.376 190.724C224.019 190.724 224.53 190.473 224.909 189.971C225.288 189.464 225.477 188.757 225.477 187.848C225.477 187.036 225.284 186.379 224.896 185.877C224.512 185.37 224.001 185.117 223.362 185.117C222.737 185.117 222.232 185.365 221.849 185.863C221.466 186.36 221.274 187.072 221.274 187.999ZM234.09 188.403H233.2V191.621H231.933V188.403H231.043L228.969 191.621H227.367L230.016 187.787L227.62 184.213H229.154L231.064 187.28H231.933V184.213H233.2V187.28H234.062L235.986 184.213H237.52L235.117 187.794L237.766 191.621H236.164L234.09 188.403ZM241.853 191.757C240.849 191.757 240.032 191.429 239.402 190.772C238.773 190.11 238.458 189.227 238.458 188.122V187.889C238.458 187.155 238.597 186.5 238.875 185.925C239.158 185.345 239.551 184.893 240.053 184.569C240.559 184.24 241.107 184.076 241.696 184.076C242.659 184.076 243.407 184.393 243.941 185.028C244.475 185.662 244.742 186.57 244.742 187.753V188.28H239.724C239.742 189.01 239.955 189.601 240.361 190.053C240.772 190.5 241.292 190.724 241.922 190.724C242.369 190.724 242.748 190.632 243.058 190.45C243.369 190.267 243.64 190.025 243.873 189.724L244.647 190.327C244.026 191.281 243.095 191.757 241.853 191.757ZM241.696 185.117C241.185 185.117 240.756 185.304 240.409 185.678C240.062 186.048 239.847 186.568 239.765 187.239H243.476V187.143C243.439 186.5 243.266 186.002 242.956 185.651C242.645 185.295 242.225 185.117 241.696 185.117ZM251.636 185.24H249.151V191.621H247.885V185.24H245.448V184.213H251.636V185.24ZM256.285 190.587L256.723 190.046C257.216 189.407 257.497 188.449 257.565 187.171L257.682 184.213H262.453V190.587H263.405V193.798H262.138V191.621H256.97V193.798H255.703L255.71 190.587H256.285ZM257.784 190.587H261.187V185.384H258.907L258.832 187.15C258.754 188.624 258.405 189.77 257.784 190.587ZM267.882 191.757C266.878 191.757 266.061 191.429 265.431 190.772C264.802 190.11 264.487 189.227 264.487 188.122V187.889C264.487 187.155 264.626 186.5 264.904 185.925C265.187 185.345 265.58 184.893 266.082 184.569C266.588 184.24 267.136 184.076 267.725 184.076C268.688 184.076 269.436 184.393 269.97 185.028C270.504 185.662 270.771 186.57 270.771 187.753V188.28H265.753C265.771 189.01 265.984 189.601 266.39 190.053C266.801 190.5 267.321 190.724 267.951 190.724C268.398 190.724 268.777 190.632 269.087 190.45C269.398 190.267 269.669 190.025 269.902 189.724L270.676 190.327C270.055 191.281 269.124 191.757 267.882 191.757ZM267.725 185.117C267.214 185.117 266.785 185.304 266.438 185.678C266.091 186.048 265.876 186.568 265.794 187.239H269.505V187.143C269.468 186.5 269.295 186.002 268.985 185.651C268.674 185.295 268.254 185.117 267.725 185.117ZM278.316 184.213V191.621H277.042V185.261H274.523L274.372 188.033C274.29 189.307 274.076 190.217 273.729 190.765C273.387 191.312 272.841 191.598 272.093 191.621H271.586V190.505L271.949 190.477C272.36 190.432 272.654 190.194 272.832 189.765C273.01 189.336 273.124 188.542 273.174 187.383L273.311 184.213H278.316ZM284.922 191.621C284.849 191.475 284.79 191.214 284.744 190.84C284.155 191.452 283.453 191.757 282.636 191.757C281.905 191.757 281.305 191.552 280.835 191.141C280.37 190.726 280.137 190.201 280.137 189.567C280.137 188.795 280.429 188.198 281.013 187.773C281.602 187.344 282.428 187.13 283.491 187.13H284.724V186.548C284.724 186.105 284.591 185.753 284.327 185.493C284.062 185.229 283.672 185.096 283.156 185.096C282.704 185.096 282.325 185.21 282.02 185.439C281.714 185.667 281.561 185.943 281.561 186.267H280.287C280.287 185.897 280.418 185.541 280.678 185.199C280.942 184.852 281.298 184.578 281.746 184.377C282.197 184.177 282.693 184.076 283.231 184.076C284.085 184.076 284.753 184.291 285.237 184.72C285.721 185.144 285.972 185.731 285.99 186.479V189.888C285.99 190.569 286.077 191.109 286.25 191.511V191.621H284.922ZM282.82 190.655C283.218 190.655 283.594 190.553 283.95 190.347C284.306 190.142 284.564 189.875 284.724 189.546V188.026H283.731C282.179 188.026 281.403 188.48 281.403 189.389C281.403 189.786 281.536 190.096 281.8 190.32C282.065 190.543 282.405 190.655 282.82 190.655ZM293.37 185.24H290.885V191.621H289.619V185.24H287.181V184.213H293.37V185.24ZM295.986 186.767H297.909C298.749 186.776 299.413 186.995 299.902 187.424C300.39 187.853 300.634 188.435 300.634 189.17C300.634 189.909 300.383 190.502 299.881 190.95C299.379 191.397 298.703 191.621 297.855 191.621H294.719V184.213H295.986V186.767ZM295.986 187.8V190.587H297.868C298.343 190.587 298.71 190.466 298.97 190.224C299.231 189.977 299.361 189.642 299.361 189.218C299.361 188.807 299.233 188.471 298.977 188.211C298.726 187.946 298.373 187.81 297.916 187.8H295.986ZM303.701 188.814C303.71 188.271 303.772 187.842 303.886 187.527C304 187.212 304.233 186.863 304.584 186.479L305.481 185.555C305.864 185.121 306.056 184.656 306.056 184.158C306.056 183.679 305.931 183.305 305.68 183.036C305.429 182.762 305.064 182.625 304.584 182.625C304.119 182.625 303.744 182.748 303.462 182.994C303.179 183.241 303.037 183.572 303.037 183.987H301.771C301.78 183.248 302.042 182.652 302.558 182.2C303.078 181.744 303.754 181.516 304.584 181.516C305.447 181.516 306.118 181.748 306.597 182.214C307.081 182.675 307.323 183.309 307.323 184.117C307.323 184.916 306.953 185.703 306.214 186.479L305.467 187.219C305.134 187.588 304.968 188.12 304.968 188.814H303.701ZM303.646 190.984C303.646 190.778 303.708 190.607 303.831 190.47C303.959 190.329 304.146 190.258 304.393 190.258C304.639 190.258 304.826 190.329 304.954 190.47C305.082 190.607 305.146 190.778 305.146 190.984C305.146 191.189 305.082 191.36 304.954 191.497C304.826 191.63 304.639 191.696 304.393 191.696C304.146 191.696 303.959 191.63 303.831 191.497C303.708 191.36 303.646 191.189 303.646 190.984Z" fill="#0E47A0"/>
<defs>
<filter id="filter0_d" x="148.909" y="82.0127" width="190.683" height="190.683" filterUnits="userSpaceOnUse" color-interpolation-filters="sRGB">
<feFlood flood-opacity="0" result="BackgroundImageFix"/>
<feColorMatrix in="SourceAlpha" type="matrix" values="0 0 0 0 0 0 0 0 0 0 0 0 0 0 0 0 0 0 127 0"/>
<feOffset/>
<feGaussianBlur stdDeviation="9.46406"/>
<feColorMatrix type="matrix" values="0 0 0 0 0 0 0 0 0 0 0 0 0 0 0 0 0 0 0.49 0"/>
<feBlend mode="normal" in2="BackgroundImageFix" result="effect1_dropShadow"/>
<feBlend mode="normal" in="SourceGraphic" in2="effect1_dropShadow" result="shape"/>
</filter>
<filter id="filter1_d" x="435.635" y="0.691137" width="51.8771" height="51.8771" filterUnits="userSpaceOnUse" color-interpolation-filters="sRGB">
<feFlood flood-opacity="0" result="BackgroundImageFix"/>
<feColorMatrix in="SourceAlpha" type="matrix" values="0 0 0 0 0 0 0 0 0 0 0 0 0 0 0 0 0 0 127 0"/>
<feOffset/>
<feGaussianBlur stdDeviation="9.46406"/>
<feColorMatrix type="matrix" values="0 0 0 0 0 0 0 0 0 0 0 0 0 0 0 0 0 0 0.3 0"/>
<feBlend mode="normal" in2="BackgroundImageFix" result="effect1_dropShadow"/>
<feBlend mode="normal" in="SourceGraphic" in2="effect1_dropShadow" result="shape"/>
</filter>
<filter id="filter2_d" x="425.457" y="147.04" width="51.8794" height="51.8794" filterUnits="userSpaceOnUse" color-interpolation-filters="sRGB">
<feFlood flood-opacity="0" result="BackgroundImageFix"/>
<feColorMatrix in="SourceAlpha" type="matrix" values="0 0 0 0 0 0 0 0 0 0 0 0 0 0 0 0 0 0 127 0"/>
<feOffset/>
<feGaussianBlur stdDeviation="9.46406"/>
<feColorMatrix type="matrix" values="0 0 0 0 0 0 0 0 0 0 0 0 0 0 0 0 0 0 0.3 0"/>
<feBlend mode="normal" in2="BackgroundImageFix" result="effect1_dropShadow"/>
<feBlend mode="normal" in="SourceGraphic" in2="effect1_dropShadow" result="shape"/>
</filter>
<filter id="filter3_d" x="434.694" y="294.89" width="51.8795" height="51.8794" filterUnits="userSpaceOnUse" color-interpolation-filters="sRGB">
<feFlood flood-opacity="0" result="BackgroundImageFix"/>
<feColorMatrix in="SourceAlpha" type="matrix" values="0 0 0 0 0 0 0 0 0 0 0 0 0 0 0 0 0 0 127 0"/>
<feOffset/>
<feGaussianBlur stdDeviation="9.46406"/>
<feColorMatrix type="matrix" values="0 0 0 0 0 0 0 0 0 0 0 0 0 0 0 0 0 0 0.3 0"/>
<feBlend mode="normal" in2="BackgroundImageFix" result="effect1_dropShadow"/>
<feBlend mode="normal" in="SourceGraphic" in2="effect1_dropShadow" result="shape"/>
</filter>
<filter id="filter4_d" x="0.00790977" y="296.702" width="51.8806" height="51.8806" filterUnits="userSpaceOnUse" color-interpolation-filters="sRGB">
<feFlood flood-opacity="0" result="BackgroundImageFix"/>
<feColorMatrix in="SourceAlpha" type="matrix" values="0 0 0 0 0 0 0 0 0 0 0 0 0 0 0 0 0 0 127 0"/>
<feOffset/>
<feGaussianBlur stdDeviation="9.46406"/>
<feColorMatrix type="matrix" values="0 0 0 0 0 0 0 0 0 0 0 0 0 0 0 0 0 0 0.3 0"/>
<feBlend mode="normal" in2="BackgroundImageFix" result="effect1_dropShadow"/>
<feBlend mode="normal" in="SourceGraphic" in2="effect1_dropShadow" result="shape"/>
</filter>
<filter id="filter5_d" x="10.9037" y="149.411" width="51.8771" height="51.8771" filterUnits="userSpaceOnUse" color-interpolation-filters="sRGB">
<feFlood flood-opacity="0" result="BackgroundImageFix"/>
<feColorMatrix in="SourceAlpha" type="matrix" values="0 0 0 0 0 0 0 0 0 0 0 0 0 0 0 0 0 0 127 0"/>
<feOffset/>
<feGaussianBlur stdDeviation="9.46406"/>
<feColorMatrix type="matrix" values="0 0 0 0 0 0 0 0 0 0 0 0 0 0 0 0 0 0 0.3 0"/>
<feBlend mode="normal" in2="BackgroundImageFix" result="effect1_dropShadow"/>
<feBlend mode="normal" in="SourceGraphic" in2="effect1_dropShadow" result="shape"/>
</filter>
<filter id="filter6_d" x="1.8624" y="2.83079" width="51.8806" height="51.8806" filterUnits="userSpaceOnUse" color-interpolation-filters="sRGB">
<feFlood flood-opacity="0" result="BackgroundImageFix"/>
<feColorMatrix in="SourceAlpha" type="matrix" values="0 0 0 0 0 0 0 0 0 0 0 0 0 0 0 0 0 0 127 0"/>
<feOffset/>
<feGaussianBlur stdDeviation="9.46406"/>
<feColorMatrix type="matrix" values="0 0 0 0 0 0 0 0 0 0 0 0 0 0 0 0 0 0 0.3 0"/>
<feBlend mode="normal" in2="BackgroundImageFix" result="effect1_dropShadow"/>
<feBlend mode="normal" in="SourceGraphic" in2="effect1_dropShadow" result="shape"/>
</filter>
</defs>
</svg>
